<?xml version="1.0" encoding="iso-8859-1"?>
<!-- Generator: Adobe Illustrator 19.0.0, SVG Export Plug-In . SVG Version: 6.00 Build 0)  -->
<svg fill="#6f34fe" version="1.1" id="Capa_1" xmlns="http://www.w3.org/2000/svg" xmlns:xlink="http://www.w3.org/1999/xlink" x="0px" y="0px"
	 viewBox="0 0 407.51 407.51" style="enable-background:new 0 0 407.51 407.51;" xml:space="preserve">
<g>
	<g>
		<g>
			<path d="M260.18,252.343l-99.788-58.514c-3-2.022-6.926-2.022-9.927,0c-2.95,1.941-4.565,5.371-4.18,8.882v117.029
				c-0.385,3.51,1.229,6.941,4.18,8.882l4.702,1.567c1.863,0.038,3.691-0.51,5.224-1.567l99.788-58.514
				c4.905-2.448,6.897-8.41,4.448-13.315C263.667,254.865,262.105,253.304,260.18,252.343z M167.184,301.453v-80.457l68.441,40.229
				L167.184,301.453z"/>
			<path d="M360.49,112.327H47.02c-25.969,0-47.02,21.052-47.02,47.02v198.531c0,25.969,21.052,47.02,47.02,47.02H360.49
				c25.969,0,47.02-21.052,47.02-47.02V159.347C407.51,133.378,386.458,112.327,360.49,112.327z M386.612,357.878
				c0,14.427-11.695,26.122-26.122,26.122H47.02c-14.427,0-26.122-11.695-26.122-26.122V159.347
				c0-14.427,11.695-26.122,26.122-26.122H360.49c14.427,0,26.122,11.695,26.122,26.122V357.878z"/>
			<path d="M53.812,80.98H354.22c5.771,0,10.449-4.678,10.449-10.449s-4.678-10.449-10.449-10.449H53.812
				c-5.771,0-10.449,4.678-10.449,10.449S48.041,80.98,53.812,80.98z"/>
			<path d="M98.22,23.51H309.29c5.771,0,10.449-4.678,10.449-10.449S315.061,2.612,309.29,2.612H98.22
				c-5.771,0-10.449,4.678-10.449,10.449S92.45,23.51,98.22,23.51z"/>
		</g>
	</g>
</g>
<g>
</g>
<g>
</g>
<g>
</g>
<g>
</g>
<g>
</g>
<g>
</g>
<g>
</g>
<g>
</g>
<g>
</g>
<g>
</g>
<g>
</g>
<g>
</g>
<g>
</g>
<g>
</g>
<g>
</g>
</svg>
