<?xml version="1.0" encoding="iso-8859-1"?>
<!-- Generator: Adobe Illustrator 19.0.0, SVG Export Plug-In . SVG Version: 6.00 Build 0)  -->
<svg fill="#6f34fe" version="1.1" id="Capa_1" xmlns="http://www.w3.org/2000/svg" xmlns:xlink="http://www.w3.org/1999/xlink" x="0px" y="0px"
	 viewBox="0 0 512.001 512.001" style="enable-background:new 0 0 512.001 512.001;" xml:space="preserve">
<g>
	<g>
		<path d="M37.07,309.64c-1.859-1.86-4.439-2.93-7.069-2.93s-5.21,1.07-7.07,2.93s-2.93,4.43-2.93,7.07c0,2.63,1.069,5.21,2.93,7.07
			c1.86,1.859,4.44,2.93,7.07,2.93s5.21-1.07,7.069-2.93c1.86-1.87,2.931-4.44,2.931-7.07S38.931,311.5,37.07,309.64z"/>
	</g>
</g>
<g>
	<g>
		<path d="M57.072,76.928l-20-20c-3.906-3.904-10.236-3.904-14.143,0l-20,20c-3.905,3.905-3.905,10.237,0,14.143
			c3.906,3.904,10.236,3.904,14.143,0l2.929-2.928v188.245c0,5.522,4.478,10,10,10s10-4.478,10-10V88.143l2.929,2.929
			C44.883,93.023,47.442,94,50.001,94s5.118-0.977,7.071-2.929C60.977,87.166,60.977,80.834,57.072,76.928z"/>
	</g>
</g>
<g>
	<g>
		<path d="M509.073,420.929l-20-20c-3.906-3.904-10.236-3.904-14.143,0c-3.905,3.905-3.905,10.237,0,14.143l2.929,2.929h-35.888
			V277.667c0-5.522-4.478-10-10-10c-5.522,0-10,4.478-10,10V418H313.606v-64c0-5.522-4.478-10-10-10c-5.522,0-10,4.478-10,10v64
			h-83.13V257.525c0-5.522-4.478-10-10-10c-5.522,0-10,4.478-10,10V418h-80.29v-62.5c0-5.522-4.478-10-10-10
			c-5.522,0-10,4.478-10,10V418H40.001v-57.555c0-5.522-4.478-10-10-10s-10,4.478-10,10V428c0,5.522,4.478,10,10,10h447.857
			l-2.929,2.929c-3.905,3.905-3.905,10.237,0,14.143c1.953,1.952,4.512,2.929,7.071,2.929s5.118-0.977,7.071-2.929l20-20
			C512.978,431.166,512.978,424.834,509.073,420.929z"/>
	</g>
</g>
<g>
	<g>
		<path d="M431.969,131.476c-19.91,0-36.107,16.197-36.107,36.107c0,5.71,1.338,11.113,3.708,15.918l-78.304,78.304
			c-5.226-2.944-11.249-4.632-17.662-4.632c-6.27,0-12.17,1.609-17.314,4.431l-52.962-52.962c2.083-4.559,3.253-9.619,3.253-14.951
			c0-19.91-16.197-36.108-36.107-36.108c-19.91,0-36.108,16.198-36.108,36.108c0,6.144,1.546,11.932,4.264,17.001l-51.027,51.027
			c-5.169-2.859-11.106-4.492-17.419-4.492c-19.91,0-36.107,16.197-36.107,36.107c0,19.91,16.199,36.107,36.109,36.107
			c19.91,0,36.108-16.197,36.108-36.107c0-6.342-1.649-12.303-4.532-17.488l50.816-50.816c5.28,3.027,11.387,4.768,17.897,4.768
			c7.305,0,14.106-2.187,19.794-5.931l51.82,51.82c-2.92,5.209-4.592,11.208-4.592,17.593c0,19.91,16.197,36.108,36.107,36.108
			c19.91,0,36.107-16.198,36.107-36.108c0-6.241-1.593-12.117-4.392-17.244l77.721-77.721c5.508,3.405,11.991,5.376,18.929,5.376
			c19.91,0,36.107-16.198,36.107-36.108C468.076,147.673,451.879,131.476,431.969,131.476z M100.187,309.442
			c-8.881,0-16.107-7.226-16.107-16.107s7.224-16.108,16.106-16.108c4.351,0,8.298,1.741,11.2,4.555
			c0.049,0.051,0.092,0.107,0.142,0.157c0.059,0.059,0.124,0.109,0.185,0.167c2.83,2.904,4.582,6.863,4.582,11.229
			C116.295,302.217,109.068,309.442,100.187,309.442z M200.476,209.797c-8.881,0-16.108-7.226-16.108-16.107
			s7.226-16.108,16.108-16.108c8.882,0,16.107,7.227,16.107,16.108S209.357,209.797,200.476,209.797z M303.606,309.387
			c-8.881,0-16.107-7.227-16.107-16.108c0-8.881,7.226-16.107,16.107-16.107s16.107,7.225,16.107,16.107
			C319.713,302.161,312.487,309.387,303.606,309.387z M431.971,183.69c-8.881,0-16.107-7.227-16.107-16.108
			c0-8.881,7.225-16.107,16.107-16.107c8.882,0,16.107,7.226,16.107,16.107C448.078,176.463,440.852,183.69,431.971,183.69z"/>
	</g>
</g>
<g>
	<g>
		<path d="M439.041,228.93c-1.86-1.86-4.44-2.93-7.07-2.93s-5.21,1.069-7.07,2.93c-1.859,1.86-2.93,4.44-2.93,7.07
			s1.07,5.21,2.93,7.069c1.86,1.86,4.44,2.931,7.07,2.931s5.21-1.07,7.07-2.931c1.859-1.859,2.93-4.439,2.93-7.069
			S440.901,230.79,439.041,228.93z"/>
	</g>
</g>
<g>
</g>
<g>
</g>
<g>
</g>
<g>
</g>
<g>
</g>
<g>
</g>
<g>
</g>
<g>
</g>
<g>
</g>
<g>
</g>
<g>
</g>
<g>
</g>
<g>
</g>
<g>
</g>
<g>
</g>
</svg>
