<svg fill="#6f34fe" enable-background="new 0 0 512 512" height="512" viewBox="0 0 512 512" width="512" xmlns="http://www.w3.org/2000/svg"><g id="_x36_28_x2C__Additive_x2C__Nutrition_Supplement_x2C__Protein">
    <g>
        <path  d="m480.998 321.006h-2.729c-5.986-14.483-21.018-24.035-37.374-22.303-11.982-20.061-39.555-23.727-56.279-7.58-21.286-6.026-42.771 8.298-45.76 29.883h-15.699l16.556-120.002h11.285c5.519 0 10.001-4.477 10.001-10 0-38.599-31.406-70-70.005-70h-5.639c-2.918-23.274-15.857-43.465-34.357-56.105v-14.395c0-16.266-13.233-29.504-29.499-29.504h-31.001c-16.267 0-29.5 13.238-29.5 29.504v14.394c-18.505 12.64-31.437 32.831-34.353 56.105h-5.647c-38.599 0-70 31.402-70 70 0 5.523 4.477 10 10 10h11.286l38.808 281.369c.682 4.94 4.911 8.626 9.906 8.626h169.996c5 0 9.224-3.686 9.911-8.626l12.601-91.371h44.844c6.564 23.338 27.921 40.003 52.893 40.003h7.352c23.687 0 44.645-15.101 52.146-37.583l19.742-59.258c2.159-6.463-2.662-13.157-9.485-13.157zm-98.285-9.164c4.622 2.61 10.479 1.146 13.338-3.316 3.008-4.712 8.128-7.521 13.696-7.521 7.312 0 13.766 4.92 15.679 11.973 1.563 5.747 7.789 8.865 13.338 6.674 4.781-1.902 10.149-1.435 14.593 1.354h-94.062c3.187-9.831 14.562-14.164 23.418-9.164zm-201.716-261.338c0-5.24 4.263-9.503 9.5-9.503h31.001c5.237 0 9.5 4.263 9.5 9.503v4.522c-16-5.279-33.486-5.448-50.001 0zm-19.999 40.87v9.632c0 5.518 4.478 9.996 10 9.996 5.521 0 9.999-4.478 9.999-9.996v-24.528c15.671-7.217 33.952-7.386 50.001 0v24.529c0 5.518 4.478 9.996 9.998 9.996 5.523 0 10.001-4.478 10.001-9.996v-9.632c7.231 8.208 12.274 18.388 14.167 29.629h-118.333c1.895-11.242 6.933-21.422 14.167-29.63zm-40.001 49.63h169.996c24.155 0 44.355 17.208 48.997 39.998-28.478 0-234.587 0-267.989 0 4.647-22.79 24.851-39.998 48.996-39.998zm161.28 330.004h-152.564l-37.242-270.004h227.049l-16.545 120.002h-16.974c-19.304 0-35.005 15.698-35.005 34.993 0 19.304 15.701 35.003 35.005 35.003h7.312zm169.486-83.911c-4.771 14.294-18.1 23.906-33.17 23.906h-7.352c-17.84 0-32.781-13.367-34.754-31.107-.558-5.061-4.841-8.896-9.931-8.896h-80.555c-8.277 0-15.001-6.724-15.001-15.001 0-8.268 6.724-14.991 15.001-14.991h181.12z"/>
        <path  d="m190.998 261.004c0-5.523-4.478-10.001-10.001-10.001h-38.427c-.874-5.667-1.432-9.383-1.589-10.613-.401-6.385-6.594-10.758-12.73-9.005-3.075.882-8.033 4.278-7.12 11.44 1.439 11.326 29.108 184.215 29.99 189.753.787 4.921 5.035 8.428 9.864 8.428 6.166 0 10.857-5.509 9.886-11.585-.44-2.749-.891-5.568-1.347-8.417h11.472c5.523 0 10.001-4.482 10.001-10.001s-4.478-10.001-10.001-10.001h-14.613l-1.579-10h16.191c5.523 0 10.001-4.473 10.001-10.001 0-5.519-4.478-10.001-10.001-10.001h-19.454c-.53-3.327-1.063-6.664-1.594-10.001h21.047c5.523 0 10.001-4.473 10.001-10.001 0-5.518-4.478-9.99-10.001-9.99h-24.085l-1.579-10.001h25.665c5.523 0 10.001-4.482 10.001-10.001 0-5.528-4.478-10.001-10.001-10.001h-28.994c-.538-3.406-1.068-6.743-1.584-10h30.578c5.523 0 10.001-4.482 10.001-10.001s-4.478-10.001-10.001-10.001h-33.558l-1.582-10.001h35.14c5.525 0 10.003-4.473 10.003-9.998zm-50.002-20.236c.03.792-.055 1.614-.242 2.436.18-.792.262-1.609.242-2.436zm-.254 2.481c-.055.239-.117.473-.189.707.07-.234.135-.469.189-.707zm-1.208 2.963c-.938 1.549-2.328 2.909-4.179 3.795 1.769-.857 3.201-2.192 4.179-3.795zm.976-2.132c-.07.209-.142.418-.224.623.082-.204.154-.413.224-.623zm-.283.767c-.085.204-.177.409-.276.608.099-.199.191-.404.276-.608zm-.327.702c-.112.224-.231.438-.361.653.13-.214.249-.429.361-.653zm-5.311 4.787c.224-.085.445-.185.662-.284-.217.099-.436.199-.662.284z"/><path d="m450.995 231.006c16.545 0 30.003-13.462 30.003-30.002 0-16.545-13.458-30.002-30.003-30.002-16.535 0-30.002 13.457-30.002 30.002 0 16.54 13.467 30.002 30.002 30.002zm0-40.003c5.519 0 10.001 4.482 10.001 10 0 5.514-4.482 10.001-10.001 10.001-5.508 0-10.001-4.487-10.001-10.001 0-5.517 4.493-10 10.001-10z"/><path d="m386 101.006c19.295 0 34.993-15.704 34.993-35.003s-15.698-35.002-34.993-35.002c-19.304 0-35.003 15.703-35.003 35.002s15.699 35.003 35.003 35.003zm0-50.004c8.268 0 15.001 6.729 15.001 15.001 0 8.268-6.733 15.001-15.001 15.001-8.277 0-15.001-6.734-15.001-15.001 0-8.272 6.724-15.001 15.001-15.001z"/><path d="m50.997 401.002c-16.541 0-30 13.458-30 30.003s13.459 30.002 30 30.002c16.542 0 30.002-13.457 30.002-30.002s-13.46-30.003-30.002-30.003zm0 40.004c-5.514 0-9.999-4.493-9.999-10.001 0-5.519 4.485-10.001 9.999-10.001 5.516 0 10 4.482 10 10.001 0 5.508-4.485 10.001-10 10.001z"/><path d="m464.153 110.494v-.005c5.24-1.743 8.079-7.406 6.325-12.646-1.743-5.239-7.41-8.073-12.65-6.325-5.239 1.748-8.068 7.411-6.325 12.65 1.754 5.24 7.411 8.074 12.65 6.326z"/><path d="m387.833 151.518c-5.239 1.743-8.068 7.411-6.325 12.65 1.753 5.24 7.411 8.068 12.65 6.32s8.068-7.406 6.325-12.646c-1.743-5.238-7.411-8.072-12.65-6.324z"/><path d="m94.16 90.487c5.24-1.743 8.071-7.406 6.325-12.645-1.748-5.245-7.411-8.074-12.65-6.325-5.24 1.748-8.071 7.406-6.325 12.645 1.747 5.24 7.41 8.074 12.65 6.325z"/><path d="m64.16 330.489c5.24-1.743 8.071-7.411 6.325-12.65-1.748-5.24-7.411-8.068-12.65-6.325-5.239 1.753-8.071 7.41-6.325 12.65 1.748 5.239 7.41 8.068 12.65 6.325z"/><path d="m347.84 421.512c-5.239 1.743-8.068 7.411-6.325 12.65s7.411 8.068 12.65 6.325 8.068-7.411 6.325-12.65c-1.753-5.239-7.411-8.068-12.65-6.325z"/>
    </g>
</g>
</svg>