<svg fill="#6f34fe" enable-background="new 0 0 64 64" height="512" viewBox="0 0 64 64" width="512" xmlns="http://www.w3.org/2000/svg"><g id="Layer_3"><g><g id="ARC_424_"><g><path d="m14.186 42.406c-.047 0-.095-.003-.144-.01-2.285-.33-4.477-1.047-6.513-2.132-.487-.26-.672-.866-.412-1.354.261-.486.864-.671 1.354-.412 1.83.977 3.801 1.621 5.856 1.917.547.079.926.586.848 1.133-.072.499-.5.858-.989.858z"/></g></g><g id="ARC_423_"><g><path d="m49.814 42.406c-.489 0-.917-.359-.989-.857-.078-.547.301-1.054.848-1.133 2.056-.296 4.026-.94 5.856-1.917.491-.259 1.093-.074 1.354.412.26.487.075 1.094-.412 1.354-2.036 1.085-4.228 1.802-6.513 2.132-.049.006-.097.009-.144.009z"/></g></g><g id="ARC_422_"><g><path d="m39.354 33.429c-.188 0-.377-.053-.545-.162-.463-.302-.594-.921-.292-1.384 1.417-2.173 3.811-3.471 6.405-3.471.553 0 1 .447 1 1s-.447 1-1 1c-1.916 0-3.684.958-4.729 2.563-.191.294-.511.454-.839.454z"/></g></g><g id="CIRCLE_38_"><g><path d="m47.139 30.412c-3.545 0-6.539-2.994-6.539-6.538s2.994-6.538 6.539-6.538c3.544 0 6.538 2.994 6.538 6.538s-2.994 6.538-6.538 6.538zm0-11.076c-2.46 0-4.539 2.078-4.539 4.538s2.079 4.538 4.539 4.538 4.538-2.078 4.538-4.538-2.078-4.538-4.538-4.538z"/></g></g><g id="ARC_421_"><g><path d="m56 37.059c-.553 0-1-.447-1-1 0-3.113-2.533-5.646-5.646-5.646-.553 0-1-.447-1-1s.447-1 1-1c4.216 0 7.646 3.431 7.646 7.646 0 .552-.447 1-1 1z"/></g></g><g id="LINE_818_"><g><path d="m49.354 30.412h-4.431c-.553 0-1-.447-1-1s.447-1 1-1h4.431c.553 0 1 .447 1 1s-.448 1-1 1z"/></g></g><g id="LINE_817_"><g><path d="m56 40.382c-.553 0-1-.447-1-1v-3.323c0-.553.447-1 1-1s1 .447 1 1v3.323c0 .553-.447 1-1 1z"/></g></g><g id="ARC_420_"><g><path d="m20.185 41.12c-.553 0-1-.447-1-1 0-5.438 4.424-9.861 9.861-9.861.553 0 1 .447 1 1s-.447 1-1 1c-4.335 0-7.861 3.526-7.861 7.861 0 .553-.448 1-1 1z"/></g></g><g id="LINE_816_"><g><path d="m34.954 32.259h-5.908c-.553 0-1-.447-1-1s.447-1 1-1h5.908c.553 0 1 .447 1 1s-.447 1-1 1z"/></g></g><g id="ARC_419_"><g><path d="m24.646 33.429c-.327 0-.647-.16-.839-.454-1.046-1.604-2.813-2.563-4.729-2.563-.553 0-1-.447-1-1s.447-1 1-1c2.595 0 4.988 1.298 6.405 3.471.302.463.171 1.082-.292 1.384-.169.109-.358.162-.545.162z"/></g></g><g id="LINE_815_"><g><path d="m20.185 45.551c-.553 0-1-.447-1-1v-4.431c0-.553.447-1 1-1s1 .447 1 1v4.431c0 .553-.448 1-1 1z"/></g></g><g id="CIRCLE_37_"><g><path d="m32 32.259c-4.545 0-8.385-3.84-8.385-8.385s3.84-8.385 8.385-8.385 8.385 3.84 8.385 8.385-3.84 8.385-8.385 8.385zm0-14.77c-3.461 0-6.385 2.924-6.385 6.385s2.924 6.385 6.385 6.385 6.385-2.924 6.385-6.385-2.924-6.385-6.385-6.385z"/></g></g><g id="ARC_418_"><g><path d="m43.815 41.12c-.553 0-1-.447-1-1 0-4.335-3.526-7.861-7.861-7.861-.553 0-1-.447-1-1s.447-1 1-1c5.438 0 9.861 4.424 9.861 9.861 0 .553-.447 1-1 1z"/></g></g><g id="LINE_814_"><g><path d="m43.815 45.551c-.553 0-1-.447-1-1v-4.431c0-.553.447-1 1-1s1 .447 1 1v4.431c0 .553-.447 1-1 1z"/></g></g><g id="ARC_417_"><g><path d="m32 48.511c-4.22 0-8.439-1.026-12.286-3.077-.487-.261-.672-.866-.412-1.354.261-.486.863-.671 1.354-.412 7.104 3.789 15.586 3.789 22.689 0 .49-.259 1.094-.074 1.354.412.26.487.075 1.093-.412 1.354-3.848 2.05-8.067 3.077-12.287 3.077z"/></g></g><g id="CIRCLE_36_"><g><path d="m16.861 30.412c-3.544 0-6.538-2.994-6.538-6.538s2.994-6.538 6.538-6.538 6.538 2.994 6.538 6.538-2.994 6.538-6.538 6.538zm0-11.076c-2.46 0-4.538 2.078-4.538 4.538s2.078 4.538 4.538 4.538 4.538-2.078 4.538-4.538-2.078-4.538-4.538-4.538z"/></g></g><g id="ARC_416_"><g><path d="m8 37.059c-.553 0-1-.447-1-1 0-4.216 3.431-7.646 7.646-7.646.553 0 1 .447 1 1s-.447 1-1 1c-3.113-.001-5.646 2.532-5.646 5.646 0 .552-.447 1-1 1z"/></g></g><g id="LINE_813_"><g><path d="m19.077 30.412h-4.431c-.553 0-1-.447-1-1s.447-1 1-1h4.431c.553 0 1 .447 1 1s-.447 1-1 1z"/></g></g><g id="LINE_812_"><g><path d="m8 40.382c-.553 0-1-.447-1-1v-3.323c0-.553.447-1 1-1s1 .447 1 1v3.323c0 .553-.447 1-1 1z"/></g></g></g></g></svg>