<svg xmlns="http://www.w3.org/2000/svg" width="12" height="12" viewBox="0 0 12 12">
    <path fill="#FFF" fill-rule="evenodd" d="M0 0h12v1.8H0V0zm0 2.4h12V12H0V2.4zm2.4 5.4a.6.6 0 1 0 0-1.2.6.6 0 0 0 0 1.2zm0 2.4a.6.6 0 1 0 0-1.2.6.6 0 0 0 0 1.2zm2.4-4.8a.6.6 0 1 0 0-1.2.6.6 0 0 0 0 1.2zm0 2.4a.6.6 0 1 0 0-1.2.6.6 0 0 0 0 1.2zm0 2.4a.6.6 0 1 0 0-1.2.6.6 0 0 0 0 1.2zm2.4-4.8a.6.6 0 1 0 0-1.2.6.6 0 0 0 0 1.2zm0 2.4a.6.6 0 1 0 0-1.2.6.6 0 0 0 0 1.2zm0 2.4a.6.6 0 1 0 0-1.2.6.6 0 0 0 0 1.2zm2.4-4.8a.6.6 0 1 0 0-1.2.6.6 0 0 0 0 1.2zm0 2.4a.6.6 0 1 0 0-1.2.6.6 0 0 0 0 1.2z"/>
</svg>
