<svg xmlns="http://www.w3.org/2000/svg" width="36" height="36" viewBox="0 0 36 36">
    <g fill="none" fill-rule="evenodd">
        <path fill="#333" d="M0 0h36v36H0z"/>
        <path d="M17.719 16.262a.931.931 0 0 0-1 .843v7.719a.932.932 0 0 0 1 .844.932.932 0 0 0 1-.844v-7.719a.932.932 0 0 0-1-.843zM19.629 10.861H15.81a.7.7 0 0 0-.7.7v.8h5.22v-.8a.7.7 0 0 0-.701-.7zM13.755 16.262a.932.932 0 0 0-1 .843v7.719a.932.932 0 0 0 1 .844.932.932 0 0 0 1-.844v-7.719a.931.931 0 0 0-1-.843zM21.682 16.262a.932.932 0 0 0-1 .843v7.719a.932.932 0 0 0 1 .844.932.932 0 0 0 1-.844v-7.719a.931.931 0 0 0-1-.843z"/>
        <path fill="#FFF" fill-rule="nonzero" d="M25.509 12.359H22.19v-1.587A1.772 1.772 0 0 0 20.418 9H15.02c-.978 0-1.771.793-1.771 1.771v1.588H9.93a.931.931 0 0 0 0 1.861h.552v11.744a2 2 0 0 0 2 2h10.476a2 2 0 0 0 2-2V14.22h.552a.931.931 0 0 0 0-1.861h-.001zM14.755 24.824a.932.932 0 0 1-1 .844.932.932 0 0 1-1-.844v-7.719a.932.932 0 0 1 1-.843.931.931 0 0 1 1 .843v7.719zm3.964 0a.932.932 0 0 1-1 .844.932.932 0 0 1-1-.844v-7.719a.931.931 0 0 1 1-.843.932.932 0 0 1 1 .843v7.719zm1.61-12.465h-5.22v-.8a.7.7 0 0 1 .7-.7h3.819a.7.7 0 0 1 .7.7l.001.8zm2.353 12.465a.932.932 0 0 1-1 .844.932.932 0 0 1-1-.844v-7.719a.932.932 0 0 1 1-.843.931.931 0 0 1 1 .843v7.719z"/>
    </g>
</svg>
