<svg xmlns="http://www.w3.org/2000/svg" width="36" height="36" viewBox="0 0 36 36">
    <g fill="none" fill-rule="evenodd">
        <path fill="#333" d="M0 0h36v36H0z"/>
        <g fill="#FFF" fill-rule="nonzero">
            <path d="M9.775 23.564l.012.014c-.18.128-.321.303-.41.505l-1.43 3.485a.544.544 0 0 0 .055.604.49.49 0 0 0 .452.103.841.841 0 0 0 .155-.048l3.505-1.423a1.22 1.22 0 0 0 .509-.407l.012.012.472-.467-2.862-2.847-.47.47zM11.343 21.99l11.5-11.497 2.895 2.896-11.5 11.498zM29.077 9.273l-1.992-1.982c-.369-.366-.619-.382-.927-.075l-2.162 2.15 2.912 2.896 2.174-2.162a.492.492 0 0 0-.005-.827z"/>
        </g>
    </g>
</svg>
