<svg xmlns="http://www.w3.org/2000/svg" width="36" height="36" viewBox="0 0 36 36">
    <g fill="none" fill-rule="evenodd">
        <path fill="#333" d="M0 0h36v36H0z"/>
        <g fill="#FFF" fill-rule="nonzero">
            <path d="M27.571 17.967c0-2.412-.765-4.206-2.557-5.998a1.239 1.239 0 0 0-1.751 1.752c1.336 1.335 1.832 2.485 1.832 4.246a6.76 6.76 0 0 1-1.994 4.813c-1.243 1.242-2.573 1.86-4.245 1.973l1.543-1.544a1.237 1.237 0 1 0-1.75-1.751l-3.883 3.883a1 1 0 0 0 0 1.414l3.882 3.882a1.235 1.235 0 0 0 1.751 0 1.237 1.237 0 0 0 0-1.75l-1.655-1.655c2.38-.101 4.385-.98 6.107-2.7a9.22 9.22 0 0 0 2.72-6.565zM11.476 18c0-1.819.708-3.529 1.995-4.815 1.249-1.25 2.59-1.867 4.28-1.973l-1.579 1.578a1.237 1.237 0 0 0 0 1.75 1.235 1.235 0 0 0 1.75.001l3.883-3.882a1 1 0 0 0 0-1.414l-3.882-3.882a1.237 1.237 0 1 0-1.75 1.75l1.622 1.624c-2.37.106-4.364.985-6.075 2.697A9.22 9.22 0 0 0 9 18c0 2.412.765 4.206 2.558 5.997a1.235 1.235 0 0 0 1.75-.001 1.238 1.238 0 0 0 0-1.752c-1.335-1.333-1.832-2.483-1.832-4.244z"/>
        </g>
    </g>
</svg>
