<svg xmlns="http://www.w3.org/2000/svg" width="23" height="14" viewBox="0 0 23 14">
    <g fill="#EC0000" fill-rule="evenodd">
        <path d="M13 .833c-4.481 0-8.481 2.546-11.967 7.5L.563 9l.47.667c3.486 4.954 7.486 7.5 11.967 7.5 4.481 0 8.481-2.546 11.967-7.5l.47-.667-.47-.667C21.481 3.38 17.481.833 13 .833zm.246 2.337c3.278.088 6.321 1.931 9.153 5.633l.149.197-.149.197c-2.903 3.795-6.027 5.636-9.399 5.636l-.246-.003c-3.278-.088-6.321-1.931-9.153-5.633L3.45 9l.15-.197C6.504 5.008 9.628 3.167 13 3.167l.246.003z" transform="translate(-1 -2)"/>
        <path d="M13 5.111c2.17 0 3.929 1.741 3.929 3.889 0 2.148-1.76 3.889-3.929 3.889-2.17 0-3.929-1.741-3.929-3.889 0-.14.008-.28.023-.417 1.539-.2 2.727-1.504 2.727-3.083 0-.07-.002-.14-.007-.209.374-.117.773-.18 1.186-.18z" transform="translate(-1 -2)"/>
    </g>
</svg>
