<svg xmlns="http://www.w3.org/2000/svg" width="60" height="60" viewBox="0 0 60 60">
    <g fill="none">
        <circle cx="29.787" cy="29.787" r="29.787" fill="#55ACEE"/>
        <path fill="#FFF" d="M48.032 21.407c-1.276.566-2.65.949-4.09 1.12 1.471-.881 2.6-2.275 3.132-3.939-1.376.816-2.9 1.408-4.521 1.728-1.299-1.384-3.15-2.248-5.198-2.248-3.932 0-7.12 3.188-7.12 7.12 0 .558.063 1.101.185 1.622-5.917-.296-11.164-3.13-14.676-7.44-.612 1.052-.964 2.276-.964 3.58 0 2.47 1.258 4.65 3.167 5.926-1.166-.036-2.265-.356-3.224-.891v.09c0 3.45 2.455 6.327 5.711 6.98-.597.164-1.227.251-1.875.251-.46 0-.906-.044-1.34-.127.906 2.828 3.535 4.887 6.65 4.945-2.436 1.91-5.506 3.047-8.842 3.047-.574 0-1.142-.033-1.698-.1 3.15 2.021 6.893 3.2 10.913 3.2 13.096 0 20.258-10.85 20.258-20.259 0-.308-.007-.616-.02-.92 1.391-1.004 2.598-2.257 3.552-3.685z"/>
    </g>
</svg>
