<svg xmlns="http://www.w3.org/2000/svg" width="76" height="77" viewBox="0 0 76 77">
    <path fill="none" fill-rule="evenodd" stroke="#000" stroke-width="2" d="M27.51 62.066c2.144-2.338 3.36-5.462 3.36-8.5v-5.97c-5.914-1.934-10.724-6.293-12.893-12.006-5.198-.853-9.61-4.44-11.373-9.458L2.283 13.843c-.61-2.093-.22-4.172 1.04-5.817C4.583 6.382 6.505 5.44 8.6 5.44h4.167l-.314-1.969c-.23-1.3.83-2.471 2.262-2.471h46.162c1.43 0 2.492 1.17 2.262 2.471l-.315 1.969h4.565c2.093 0 4.014.942 5.273 2.587a6.366 6.366 0 0 1 1.075 5.702l-4.354 12.404c-1.812 5.155-6.418 8.8-11.8 9.521-2.178 5.653-6.95 10.01-12.863 11.944v5.968c0 3.038 1.217 6.162 3.36 8.5 3.33.475 5.872 3.167 5.872 6.43v4.336c0 1.214-1.015 2.168-2.308 2.168H23.946c-1.292 0-2.308-.954-2.308-2.168v-4.336c0-3.263 2.542-5.955 5.873-6.43zM13.459 9.775h-4.86c-.696 0-1.34.313-1.758.861a2.131 2.131 0 0 0-.361 1.903l4.286 12.175c1.01 2.875 3.266 5.078 6.05 6.103L13.457 9.775zm48.674 0l-3.38 21.187c2.975-.95 5.41-3.228 6.47-6.247l4.319-12.29c.155-.546.026-1.24-.396-1.789a2.192 2.192 0 0 0-1.757-.861h-5.256z"/>
</svg>
