<svg xmlns="http://www.w3.org/2000/svg" width="74" height="74" viewBox="0 0 74 74">
    <g fill="none" fill-rule="evenodd">
        <g fill="#000" fill-rule="nonzero">
            <path d="M36.748 64.608a5.1 5.1 0 0 0 .985-3.03c0-2.82-2.278-5.116-5.08-5.116H7.983A5.027 5.027 0 0 0 4.39 57.96a5.099 5.099 0 0 0-1.487 3.618c0 1.132.368 2.18.989 3.028A7.32 7.32 0 0 0 0 71.077v1.461C0 73.346.65 74 1.451 74h37.734c.8 0 1.45-.654 1.45-1.462v-1.461a7.32 7.32 0 0 0-3.887-6.47zM6.442 60.027c.411-.414.958-.642 1.54-.642h24.672c1.2 0 2.177.984 2.177 2.192a2.186 2.186 0 0 1-2.177 2.193H7.982c-1.2 0-2.177-.984-2.177-2.193 0-.585.226-1.136.637-1.55zm-3.54 11.05c0-2.418 1.954-4.384 4.354-4.384H33.38c2.401 0 4.354 1.966 4.354 4.384H2.903z"/>
            <path d="M72.655 60.721a9.101 9.101 0 0 0-1.741-1.999l-6.754-5.89a1.455 1.455 0 0 0-.575-.501l-4.084-3.562-18.904-16.49a4.3 4.3 0 0 0 1.2-2.992 4.309 4.309 0 0 0-1.271-3.068 4.291 4.291 0 0 0-1.198-.843l1.748-1.75c.49.13.992.197 1.494.197 1.48 0 2.96-.563 4.088-1.69a5.743 5.743 0 0 0 1.694-4.088 5.744 5.744 0 0 0-1.694-4.088L34.394 1.694A5.745 5.745 0 0 0 30.305 0a5.743 5.743 0 0 0-4.087 1.694 5.783 5.783 0 0 0-1.494 5.58l-17.45 17.45a5.817 5.817 0 0 0-1.496-.196 5.743 5.743 0 0 0-4.087 1.692 5.788 5.788 0 0 0 0 8.176L13.954 46.66a5.764 5.764 0 0 0 4.088 1.691c1.481 0 2.962-.564 4.089-1.69a5.783 5.783 0 0 0 1.494-5.582l1.745-1.745c.21.438.494.842.848 1.195a4.308 4.308 0 0 0 3.066 1.27 4.306 4.306 0 0 0 2.992-1.198L52.41 63.733a1.452 1.452 0 0 0 .276.318l6 6.893A8.597 8.597 0 0 0 65.271 74c.403 0 .81-.028 1.216-.084 2.722-.377 5.074-2.005 6.453-4.467 1.51-2.7 1.398-6.126-.285-8.728zM28.262 3.738a2.872 2.872 0 0 1 2.043-.847c.773 0 1.5.3 2.045.847L44.614 16c.546.546.847 1.272.847 2.044s-.3 1.498-.847 2.044a2.893 2.893 0 0 1-4.087 0L28.263 7.825h-.001a2.893 2.893 0 0 1 0-4.087zm-8.175 40.877a2.894 2.894 0 0 1-4.089 0L3.735 32.352a2.894 2.894 0 0 1 0-4.088 2.87 2.87 0 0 1 2.043-.846c.772 0 1.498.3 2.043.845L20.087 40.53a2.893 2.893 0 0 1 0 4.086zm6.085-10.172l-4.041 4.042L9.866 26.22 26.218 9.87l12.264 12.264-4.048 4.049-.04.038-8.172 8.172-.05.051zm5.16 3.015l-.008.009-1.017 1.018a1.437 1.437 0 0 1-1.023.423c-.386 0-.75-.15-1.022-.424a1.437 1.437 0 0 1-.424-1.023c0-.378.144-.734.406-1.003l8.21-8.21a1.45 1.45 0 0 1 2.029.016c.273.273.423.636.423 1.023 0 .386-.15.749-.423 1.022L37.47 31.32a1.394 1.394 0 0 0-.02.02l-6.118 6.117zm2.994 1.095l4.224-4.224 17.886 15.6-6.527 6.527-15.583-17.903zm17.485 20.088l6.808-6.807 2.184 1.904-7.09 7.089-1.902-2.186zm18.607 9.396c-.933 1.665-2.51 2.764-4.327 3.016a5.743 5.743 0 0 1-5.217-1.999l-5.258-6.041 7.37-7.37 6.034 5.263.014.012c.452.384.853.845 1.193 1.372 1.093 1.689 1.17 3.999.191 5.747z"/>
        </g>
        <path fill="#BDD131" d="M6.442 60.027c.411-.414.958-.642 1.54-.642h24.672c1.2 0 2.177.984 2.177 2.192a2.186 2.186 0 0 1-2.177 2.193H7.982c-1.2 0-2.177-.984-2.177-2.193 0-.585.226-1.136.637-1.55zM2.903 71.077c0-2.418 1.953-4.384 4.353-4.384H33.38c2.401 0 4.354 1.966 4.354 4.384H2.903z"/>
    </g>
</svg>
