<?xml version="1.0" encoding="utf-8"?>
<!-- Generator: Adobe Illustrator 16.0.0, SVG Export Plug-In . SVG Version: 6.00 Build 0)  -->
<!DOCTYPE svg PUBLIC "-//W3C//DTD SVG 1.1//EN" "http://www.w3.org/Graphics/SVG/1.1/DTD/svg11.dtd">
<svg version="1.1" id="Layer_1" xmlns="http://www.w3.org/2000/svg" xmlns:xlink="http://www.w3.org/1999/xlink" x="0px" y="0px"
	 width="98px" height="75px" viewBox="0 0 98 75" enable-background="new 0 0 98 75" xml:space="preserve">
<g transform="translate(2 1)">
	<circle fill="#EA1D25" cx="59.5" cy="22.5" r="4.5"/>
	<circle fill="#EA1D25" cx="74.5" cy="22.5" r="4.5"/>
	<g>
		<path fill="none" stroke="#000000" stroke-width="3" d="M45.217,37.5l-5.21,24.749c-0.967,4.594,1.973,9.102,6.567,10.069
			c0.576,0.121,1.163,0.182,1.75,0.182h37.352c4.695,0,8.5-3.807,8.5-8.5c0-0.589-0.062-1.176-0.183-1.751L88.783,37.5H45.217z"/>
		<path fill="#EA1D25" stroke="#000000" stroke-width="3" d="M42.5,31.5V33c0,2.485,2.015,4.5,4.5,4.5h41c2.485,0,4.5-2.015,4.5-4.5
			v-1.5H42.5z"/>
		<path fill="none" stroke="#000000" stroke-width="3" d="M72.157,26.343c-2.122-1.293-2.795-4.062-1.502-6.184
			s4.062-2.795,6.185-1.501c2.122,1.293,2.795,4.062,1.502,6.184C77.525,26.181,76.069,27,74.5,27
			C73.643,27,72.84,26.76,72.157,26.343l-5.404,5.404L72.157,26.343z M67.246,31.748l-5.404-5.404
			c-0.683,0.417-1.485,0.657-2.343,0.657c-1.569,0-3.025-0.819-3.842-2.159c-1.293-2.123-0.62-4.891,1.502-6.184
			c2.123-1.293,4.892-0.621,6.185,1.501s0.62,4.891-1.502,6.184L67.246,31.748z"/>
	</g>
	<g>
		<path fill="none" stroke="#000000" stroke-width="3" stroke-linecap="round" d="M16.897,1.207C7.681-0.84,3.072,2.413,3.072,10.97
			c0,8.557,4.609,11.96,13.825,10.207 M0,8.352h13.825 M0,13.496h12.289"/>
	</g>
	<g>
		<path fill="none" stroke="#000000" stroke-width="3" stroke-linecap="round" d="M31,32.48c-7.333-1.657-11,0.976-11,7.9
			c0,6.923,3.667,9.677,11,8.259 M17,38.5h11 M17,42.5h10"/>
	</g>
</g>
</svg>
