<svg xmlns="http://www.w3.org/2000/svg" viewBox="0 0 30.801 24"><defs><style>.cls-1{fill:none;}.cls-2{fill:#434343;}.cls-3{fill:#9aa6a6;}</style></defs><title>mobiel-nav-sterren</title><g id="Layer_2" data-name="Layer 2"><g id="Layer_3" data-name="Layer 3"><polygon class="cls-1" points="10.928 13.736 10.589 13.047 9.09 10.009 7.591 13.047 7.252 13.736 6.492 13.846 3.137 14.334 5.564 16.699 6.114 17.234 5.984 17.991 5.411 21.332 8.411 19.755 9.09 19.398 9.77 19.755 12.769 21.331 12.196 17.991 12.066 17.234 12.616 16.699 13.812 15.533 14.201 14.211 11.688 13.846 10.928 13.736"/><polygon class="cls-2" points="13.812 15.533 12.616 16.699 12.066 17.234 12.196 17.991 12.769 21.331 9.77 19.755 9.09 19.398 8.411 19.755 5.411 21.332 5.984 17.991 6.114 17.234 5.564 16.699 3.137 14.334 6.492 13.846 7.252 13.736 7.591 13.047 9.09 10.009 10.589 13.047 10.928 13.736 11.688 13.846 14.201 14.211 14.618 12.797 11.898 12.402 9.09 6.71 6.282 12.402 0 13.315 4.545 17.744 3.472 24 9.09 21.047 14.708 24 13.737 18.341 12.889 18.668 13.812 15.533"/><polygon class="cls-3" points="30.801 8.607 23.871 6.758 21.465 0 17.565 6.019 10.396 6.218 14.915 11.788 14.618 12.797 14.201 14.211 13.812 15.533 12.889 18.668 13.737 18.341 19.583 16.091 25.5 20.144 25.117 12.981 30.801 8.607"/></g></g></svg>