<svg xmlns="http://www.w3.org/2000/svg" viewBox="0 0 21.591 24"><defs><style>.cls-1{fill:none;}.cls-2{fill:#434343;}.cls-3{fill:#fff;}</style></defs><title>mobiel-nav-info</title><g id="Layer_2" data-name="Layer 2"><g id="Layer_3" data-name="Layer 3"><path class="cls-1" d="M9.944,5.554A1.449,1.449,0,0,0,9.6,7.747a1.449,1.449,0,0,1,.346-2.193Z"/><polygon class="cls-1" points="9.3 9.262 12.103 9.262 12.103 15.981 12.103 15.981 12.103 9.262 9.3 9.262 9.3 9.262"/><path class="cls-1" d="M12.159,6.8a1.446,1.446,0,0,1-.249.813,1.453,1.453,0,0,0,0-1.627A1.447,1.447,0,0,1,12.159,6.8Z"/><path class="cls-2" d="M21.585,10.671A10.793,10.793,0,0,0,0,10.813c0,.089.011.175.014.264A10.782,10.782,0,0,0,7.53,21.07l.216.217L10.46,24l2.667-2.668A10.794,10.794,0,0,0,21.591,10.8C21.591,10.754,21.585,10.713,21.585,10.671ZM12.1,15.981H9.3V9.262h2.8ZM11.91,7.612a1.482,1.482,0,0,1-.178.216,1.453,1.453,0,0,1-1.885.146A1.489,1.489,0,0,1,9.6,7.747a1.453,1.453,0,0,1,.809-2.374,1.414,1.414,0,0,1,.293-.03,1.455,1.455,0,0,1,1.032.427,1.473,1.473,0,0,1,.178.215,1.453,1.453,0,0,1,0,1.627Z"/><rect class="cls-3" x="9.3" y="9.262" width="2.803" height="6.719"/><path class="cls-3" d="M11.91,5.985a1.473,1.473,0,0,0-.178-.215A1.455,1.455,0,0,0,10.7,5.343a1.414,1.414,0,0,0-.293.03A1.451,1.451,0,0,0,9.6,7.747a1.489,1.489,0,0,0,.249.227,1.453,1.453,0,0,0,1.885-.146,1.482,1.482,0,0,0,.178-.216,1.453,1.453,0,0,0,0-1.627Z"/></g></g></svg>