<svg xmlns="http://www.w3.org/2000/svg" viewBox="0 0 22.154 23.862"><defs><style>.cls-1{fill:#434343;}</style></defs><title>mobiel-nav-home</title><g id="Layer_2" data-name="Layer 2"><g id="Layer_3" data-name="Layer 3"><path class="cls-1" d="M22.071,11.466,11.3.1a.3.3,0,0,0-.442,0L.083,11.466A.308.308,0,0,0,0,11.675V23.558a.3.3,0,0,0,.3.3H8.311a.3.3,0,0,0,.3-.3V18.012a.3.3,0,0,1,.3-.3h3.7a.3.3,0,0,1,.3.3v5.546a.3.3,0,0,0,.3.3H21.85a.3.3,0,0,0,.3-.3V11.675A.308.308,0,0,0,22.071,11.466Z"/></g></g></svg>