<?xml version="1.0" encoding="UTF-8"?>
<svg width="220px" height="220px" viewBox="0 0 220 220" version="1.1" xmlns="http://www.w3.org/2000/svg" xmlns:xlink="http://www.w3.org/1999/xlink">
    <!-- Generator: Sketch 52.5 (67469) - http://www.bohemiancoding.com/sketch -->
    <title>stap1</title>
    <desc>Created with Sketch.</desc>
    <g id="Symbols" stroke="none" stroke-width="1" fill="none" fill-rule="evenodd">
        <g id="Hoe-werkt-het-uitgeklapt" transform="translate(-230.000000, -60.000000)">
            <g id="stap1">
                <g transform="translate(230.000000, 60.000000)">
                    <g id="stap1-themas" fill="#FFFFFF" fill-rule="nonzero">
                        <rect id="Rectangle-11" x="0" y="0" width="220" height="220" rx="110"></rect>
                    </g>
                    <g id="Group-9" transform="translate(44.000000, 50.000000)">
                        <g id="idea-envelope" fill-rule="nonzero" stroke="#000000" stroke-width="2.41935484">
                            <g id="Group-6">
                                <path d="M1.20967742,51.9920704 L1.20967742,114 C1.20967742,116.645622 3.35437789,118.790323 6,118.790323 L126,118.790323 C128.645622,118.790323 130.790323,116.645622 130.790323,114 L130.790323,51.9920704 L66,14.9418859 L1.20967742,51.9920704 Z" id="Rectangle-2-Copy-2" fill="#F3F3F3"></path>
                                <rect id="Rectangle-2" fill="#FFFFFF" x="19.6508539" y="1.20967742" width="92.6982922" height="100.16129"></rect>
                                <path d="M1.20967742,53.4289928 L1.20967742,114 C1.20967742,116.645622 3.35437789,118.790323 6,118.790323 L126,118.790323 C128.645622,118.790323 130.790323,116.645622 130.790323,114 L130.790323,53.4289928 L66,92.3791867 L1.20967742,53.4289928 Z" id="Rectangle-2-Copy" fill="#F3F3F3"></path>
                            </g>
                        </g>
                        <g id="Group-7" transform="translate(30.000000, 7.200000)">
                            <g id="Group-10">
                                <g id="adam" fill="#171112">
                                    <path d="M15.6000177,22.2496398 L5.03803628,19.1256575 L3.61670554,19.1256575 C1.73220139,19.1069192 0.183362876,17.589115 0.146232547,15.6965443 L5.27730821,15.4529461 L5.33328358,15.4529461 C5.53670813,15.4491621 5.73329256,15.4789993 5.91765929,15.5373656 L15.8259412,17.9073788 L23.6065145,11.3874121 C24.1983714,10.8476449 25.0410091,10.6156633 25.8760954,10.8432998 L25.8949404,10.8432998 L25.9134123,10.8432998 L38.4145785,14.216198 C38.975308,14.3677807 39.4549286,14.7133064 39.7779578,15.173246 C39.7846148,15.180197 39.7888048,15.187148 39.7924423,15.194099 C39.8117097,15.2221479 39.8303992,15.2506117 39.8484939,15.2794727 L45.501118,23.7277711 L55.6380247,23.8280696 C55.9383,23.8130801 56.2456491,23.8725829 56.5320148,24.0163786 L56.5693317,24.0351169 L58.0993252,24.8408649 C59.7599279,25.7215661 60.4316323,27.7827816 59.5920017,29.4879691 L55.3465487,27.5017018 L44.5124283,27.9848817 C44.4172611,27.9925516 44.3219308,27.9937918 44.2270998,27.9887045 C43.3844619,27.9777311 42.6700927,27.4658737 42.3408121,26.7389345 L36.9931424,19.5976639 L33.2025045,33.7732218 L33.4327332,48.5823206 C33.4357124,48.7088471 33.4311536,48.8338365 33.4194501,48.9568377 L33.6340221,62.7979547 L35.1867774,63.3668203 C36.6981124,63.92897 37.7056691,65.35327 37.742986,66.9460274 L29.4026557,66.9460274 L29.4026557,64.43263 L27.2569332,49.0694421 L27.2569332,49.0508911 C27.2380881,49.0134145 27.2380881,48.9571995 27.2380881,48.9197229 C27.2378843,48.9166812 27.237685,48.9136402 27.2374901,48.9105998 L26.6971608,45.0224511 L26.1373511,49.0507787 C26.1222786,49.1655683 26.1011181,49.2780651 26.0742396,49.3879891 L23.954349,64.5662229 L23.9543117,66.9646159 L15.6139814,66.9646159 C15.6328264,65.3531201 16.6590416,63.9290075 18.17019,63.3855961 L19.7224263,62.8168153 L19.9427807,48.6197223 L19.9427807,48.582433 C19.9427807,48.5072924 19.9427807,48.4512648 19.9614392,48.3761241 C19.9626159,48.3641769 19.9638594,48.3522518 19.9651695,48.3403491 L20.2038572,33.0107364 L20.1852287,33.0107364 L20.1852287,32.7858765 C20.1978317,31.9758349 20.3579981,31.2028396 20.6395295,30.491914 L24.2505605,16.9880187 L17.6104363,21.9551256 C17.0153954,22.4063655 16.2543785,22.4924828 15.6000177,22.2496398 Z M28.4697329,4.22874659 C29.2905184,1.17439987 32.4066673,-0.624479176 35.4293373,0.200007054 C38.4706658,1.02449328 40.2618777,4.15379329 39.4409056,7.18940168 C38.6197469,10.2437484 35.5039711,12.0426274 32.4813011,11.2181412 C29.4586311,10.4123933 27.6487608,7.2830933 28.4697329,4.22874659 Z" id="Combined-Shape"></path>
                                </g>
                                <polygon id="Fill-25" fill="#231F20" points="42 43.2 75.6 43.2 75.6 42 42 42"></polygon>
                                <g id="buide" transform="translate(40.800000, 31.200000)" fill-rule="nonzero" stroke="#000000">
                                    <path d="M1.7,4.1 L1.7,4.8 C1.7,7.17482442 3.62517558,9.1 6,9.1 C8.37482442,9.1 10.3,7.17482442 10.3,4.8 L10.3,4.1 L1.7,4.1 Z" id="Path-2" fill="#F6F7F7"></path>
                                    <path d="M1.12445772,2.9 C1.18966541,3.10031957 1.37792529,3.24509804 1.6,3.24509804 L10.4,3.24509804 C10.6220747,3.24509804 10.8103346,3.10031957 10.8755423,2.9 L1.12445772,2.9 Z" id="Rectangle"></path>
                                    <g id="Group-8" transform="translate(3.420000, 0.000000)" stroke-width="0.75">
                                        <path d="M1.25473102,1.72739414 C1.14588208,1.77412267 1.02596302,1.8 0.9,1.8 C0.402943725,1.8 0,1.39705627 0,0.9 C0,0.402943725 0.402943725,-5.68434189e-14 0.9,-5.68434189e-14 C1.39705627,-5.68434189e-14 1.8,0.402943725 1.8,0.9 C1.8,1.27109325 1.57540536,1.58972961 1.25473102,1.72739414 L1.8,3 L1.25473102,1.72739414 Z" id="Combined-Shape"></path>
                                        <path d="M3.17473102,1.72739414 L3.72,3 L3.17473102,1.72739414 C3.06588208,1.77412267 2.94596302,1.8 2.82,1.8 C2.32294373,1.8 1.92,1.39705627 1.92,0.9 C1.92,0.402943725 2.32294373,-5.68434189e-14 2.82,-5.68434189e-14 C3.31705627,-5.68434189e-14 3.72,0.402943725 3.72,0.9 C3.72,1.27109325 3.49540536,1.58972961 3.17473102,1.72739414 Z" id="Combined-Shape-Copy" transform="translate(3.528191, 1.696078) scale(-1, 1) translate(-3.528191, -1.696078) "></path>
                                    </g>
                                </g>
                                <g id="buide-copy" transform="translate(52.800000, 31.200000)" fill-rule="nonzero" stroke="#000000">
                                    <path d="M1.7,4.1 L1.7,4.8 C1.7,7.17482442 3.62517558,9.1 6,9.1 C8.37482442,9.1 10.3,7.17482442 10.3,4.8 L10.3,4.1 L1.7,4.1 Z" id="Path-2" fill="#F6F7F7"></path>
                                    <path d="M1.12445772,2.9 C1.18966541,3.10031957 1.37792529,3.24509804 1.6,3.24509804 L10.4,3.24509804 C10.6220747,3.24509804 10.8103346,3.10031957 10.8755423,2.9 L1.12445772,2.9 Z" id="Rectangle"></path>
                                    <g id="Group-8" transform="translate(3.420000, 0.000000)" stroke-width="0.75">
                                        <path d="M1.25473102,1.72739414 L1.8,3 L1.25473102,1.72739414 C1.14588208,1.77412267 1.02596302,1.8 0.9,1.8 C0.402943725,1.8 0,1.39705627 0,0.9 C0,0.402943725 0.402943725,-5.68434189e-14 0.9,-5.68434189e-14 C1.39705627,-5.68434189e-14 1.8,0.402943725 1.8,0.9 C1.8,1.27109325 1.57540536,1.58972961 1.25473102,1.72739414 Z" id="Combined-Shape"></path>
                                        <path d="M3.17473102,1.72739414 C3.06588208,1.77412267 2.94596302,1.8 2.82,1.8 C2.32294373,1.8 1.92,1.39705627 1.92,0.9 C1.92,0.402943725 2.32294373,-5.68434189e-14 2.82,-5.68434189e-14 C3.31705627,-5.68434189e-14 3.72,0.402943725 3.72,0.9 C3.72,1.27109325 3.49540536,1.58972961 3.17473102,1.72739414 L3.72,3 L3.17473102,1.72739414 Z" id="Combined-Shape-Copy" transform="translate(3.528191, 1.696078) scale(-1, 1) translate(-3.528191, -1.696078) "></path>
                                    </g>
                                </g>
                                <g id="buide-copy-2" transform="translate(64.800000, 31.200000)" fill-rule="nonzero" stroke="#000000">
                                    <path d="M1.7,4.1 L1.7,4.8 C1.7,7.17482442 3.62517558,9.1 6,9.1 C8.37482442,9.1 10.3,7.17482442 10.3,4.8 L10.3,4.1 L1.7,4.1 Z" id="Path-2" fill="#F6F7F7"></path>
                                    <path d="M1.12445772,2.9 C1.18966541,3.10031957 1.37792529,3.24509804 1.6,3.24509804 L10.4,3.24509804 C10.6220747,3.24509804 10.8103346,3.10031957 10.8755423,2.9 L1.12445772,2.9 Z" id="Rectangle"></path>
                                    <g id="Group-8" transform="translate(3.420000, 0.000000)" stroke-width="0.75">
                                        <path d="M1.25473102,1.72739414 L1.8,3 L1.25473102,1.72739414 C1.14588208,1.77412267 1.02596302,1.8 0.9,1.8 C0.402943725,1.8 0,1.39705627 0,0.9 C0,0.402943725 0.402943725,-5.68434189e-14 0.9,-5.68434189e-14 C1.39705627,-5.68434189e-14 1.8,0.402943725 1.8,0.9 C1.8,1.27109325 1.57540536,1.58972961 1.25473102,1.72739414 Z" id="Combined-Shape"></path>
                                        <path d="M3.17473102,1.72739414 C3.06588208,1.77412267 2.94596302,1.8 2.82,1.8 C2.32294373,1.8 1.92,1.39705627 1.92,0.9 C1.92,0.402943725 2.32294373,-5.68434189e-14 2.82,-5.68434189e-14 C3.31705627,-5.68434189e-14 3.72,0.402943725 3.72,0.9 C3.72,1.27109325 3.49540536,1.58972961 3.17473102,1.72739414 L3.72,3 L3.17473102,1.72739414 Z" id="Combined-Shape-Copy" transform="translate(3.528191, 1.696078) scale(-1, 1) translate(-3.528191, -1.696078) "></path>
                                    </g>
                                </g>
                            </g>
                            <g id="Group-2" fill-rule="nonzero" stroke="#000000" stroke-linecap="round" stroke-width="1.5">
                                <path d="M8.06937387,0.587232013 C3.66789722,-0.409175269 1.46715889,1.17400519 1.46715889,5.33677339 C1.46715889,9.49954159 3.66789722,11.1546848 8.06937387,10.302203" id="Path"></path>
                                <path d="M6.75015599e-14,4.06294035 L6.60221499,4.06294035" id="Path-3"></path>
                                <path d="M2.22044605e-14,6.56567571 L5.86863554,6.56567571" id="Path-4"></path>
                            </g>
                        </g>
                    </g>
                </g>
            </g>
        </g>
    </g>
</svg>