<svg xmlns="http://www.w3.org/2000/svg" width="83" height="76" viewBox="0 0 83 76">
    <g fill="none" fill-rule="evenodd" stroke="#000" stroke-width="2">
        <path d="M10 13h72v51H10z"/>
        <path fill="#FFF" d="M1.414 34.9l39.598 39.597 8.485-8.485L9.9 26.414 1.414 34.9z"/>
        <path stroke-linecap="square" d="M9.849 34.243l3.833-3.833M41.669 66.063l3.833-3.834M35.305 59.699l3.833-3.834M28.94 53.335l3.834-3.833M22.577 46.97l3.833-3.832M16.213 40.607l3.833-3.833"/>
        <g>
            <path d="M39 35c13.244 2.83 17.735 24.321 35.337 6.587"/>
            <path fill="#D8D8D8" d="M60.577 7.941l-19.799 19.8 5.657 5.656 19.799-19.799-5.657-5.657z"/>
            <path d="M60.577 7.941l5.657 5.657 2.828-2.828a2 2 0 0 0 0-2.829l-2.828-2.828a2 2 0 0 0-2.828 0L60.577 7.94zM41.215 28.177l-2.391 7.174 7.174-2.391-4.783-4.783z"/>
        </g>
    </g>
</svg>
