<svg xmlns="http://www.w3.org/2000/svg" width="18" height="16" viewBox="0 0 18 16">
  <g fill="none" fill-rule="evenodd">
    <path fill="#656565" d="M6.12,12.5577222 L16.6808136,12.5577222 C17.3343051,12.5577222 17.8639322,12.0272778 17.8639322,11.3727778 L17.8639322,4.92983333 L17.8639322,1.18494444 C17.8639322,0.530444444 17.3343051,1.77635684e-15 16.6808136,1.77635684e-15 L1.18372881,1.77635684e-15 C0.530237288,1.77635684e-15 5.68434189e-14,0.530444444 5.68434189e-14,1.18494444 L5.68434189e-14,11.3727778 C5.68434189e-14,12.0272778 0.530237288,12.5577222 1.18372881,12.5577222 L2.65179661,12.5577222 L2.65179661,15.4262778 L4.59884746,13.4811111 L5.5220339,12.5577222 L6.12,12.5577222 Z"/>
    <path fill="#FFF" d="M5.79661017 6.56944444C5.79661017 7.15977778 5.31884746 7.63888889 4.72881356 7.63888889 4.13877966 7.63888889 3.66101695 7.15977778 3.66101695 6.56944444 3.66101695 5.97911111 4.13877966 5.5 4.72881356 5.5 5.31884746 5.5 5.79661017 5.97911111 5.79661017 6.56944444M10.0677966 6.56944444C10.0677966 7.15977778 9.5900339 7.63888889 9 7.63888889 8.4099661 7.63888889 7.93220339 7.15977778 7.93220339 6.56944444 7.93220339 5.97911111 8.4099661 5.5 9 5.5 9.5900339 5.5 10.0677966 5.97911111 10.0677966 6.56944444M14.3389831 6.56944444C14.3389831 7.15977778 13.8612203 7.63888889 13.2711864 7.63888889 12.6811525 7.63888889 12.2033898 7.15977778 12.2033898 6.56944444 12.2033898 5.97911111 12.6811525 5.5 13.2711864 5.5 13.8612203 5.5 14.3389831 5.97911111 14.3389831 6.56944444"/>
  </g>
</svg>
