<svg xmlns="http://www.w3.org/2000/svg" width="24" height="23" viewBox="0 0 24 23">
  <g fill="none" fill-rule="evenodd" transform="translate(0 .648)">
    <path fill="#F3F3F3" d="M6.74115254,17.7631667 C6.21762712,17.7625556 5.79294915,17.3378333 5.79233898,16.8128889 L5.79233898,12.8333333 L5.19437288,12.8333333 L4.27118644,13.7561111 C4.35966102,18.1176111 7.91084746,21.6272222 12.2863729,21.6272222 C15.0846102,21.6272222 17.5460339,20.1905 18.9817627,18.0155556 L18.7297627,17.7631667 L6.74115254,17.7631667 Z"/>
    <path fill="#000" d="M23.0186441,4.88888955 L17.8450169,4.88888955 L17.8450169,11.331834 C17.8450169,11.986334 17.3153898,12.5167784 16.6625085,12.5167784 L6.10169492,12.5167784 L6.10169492,16.4969451 C6.10230508,17.0212784 6.52637288,17.4460007 7.05050847,17.4466118 L19.0385085,17.4466118 L19.2905085,17.6990007 L22.0698305,20.4777229 L22.0698305,17.4466118 L23.0186441,17.4466118 C23.5427797,17.4466118 23.9680678,17.0218895 23.968678,16.4969451 L23.968678,5.8379451 C23.9680678,5.31300066 23.5427797,4.88827844 23.0186441,4.88888955"/>
    <path fill="#656565" d="M6.12,12.5577222 L16.6808136,12.5577222 C17.3343051,12.5577222 17.8639322,12.0272778 17.8639322,11.3727778 L17.8639322,4.92983333 L17.8639322,1.18494444 C17.8639322,0.530444444 17.3343051,1.77635684e-15 16.6808136,1.77635684e-15 L1.18372881,1.77635684e-15 C0.530237288,1.77635684e-15 5.68434189e-14,0.530444444 5.68434189e-14,1.18494444 L5.68434189e-14,11.3727778 C5.68434189e-14,12.0272778 0.530237288,12.5577222 1.18372881,12.5577222 L2.65179661,12.5577222 L2.65179661,15.4262778 L4.59884746,13.4811111 L5.5220339,12.5577222 L6.12,12.5577222 Z"/>
    <path fill="#FFF" d="M5.79661017 6.56944444C5.79661017 7.15977778 5.31884746 7.63888889 4.72881356 7.63888889 4.13877966 7.63888889 3.66101695 7.15977778 3.66101695 6.56944444 3.66101695 5.97911111 4.13877966 5.5 4.72881356 5.5 5.31884746 5.5 5.79661017 5.97911111 5.79661017 6.56944444M10.0677966 6.56944444C10.0677966 7.15977778 9.5900339 7.63888889 9 7.63888889 8.4099661 7.63888889 7.93220339 7.15977778 7.93220339 6.56944444 7.93220339 5.97911111 8.4099661 5.5 9 5.5 9.5900339 5.5 10.0677966 5.97911111 10.0677966 6.56944444M14.3389831 6.56944444C14.3389831 7.15977778 13.8612203 7.63888889 13.2711864 7.63888889 12.6811525 7.63888889 12.2033898 7.15977778 12.2033898 6.56944444 12.2033898 5.97911111 12.6811525 5.5 13.2711864 5.5 13.8612203 5.5 14.3389831 5.97911111 14.3389831 6.56944444"/>
  </g>
</svg>
