<svg width="22" height="22" viewBox="0 0 22 22" fill="none" xmlns="http://www.w3.org/2000/svg">
<g id="icon/attention">
<g id="icon/attention_2">
<g id="Group 4">
<path id="Oval" d="M11 21C16.5228 21 21 16.5228 21 11C21 5.47715 16.5228 1 11 1C5.47715 1 1 5.47715 1 11C1 16.5228 5.47715 21 11 21Z" stroke="#EC1C24" stroke-width="1.75"/>
<path id="!" d="M11.96 12.804H10.28V6H11.96V12.804ZM10 14.932C10 14.6333 10.1073 14.3767 10.322 14.162C10.546 13.9473 10.812 13.84 11.12 13.84C11.4187 13.84 11.68 13.9427 11.904 14.148C12.128 14.3533 12.24 14.6053 12.24 14.904C12.24 15.2027 12.128 15.4593 11.904 15.674C11.6893 15.8887 11.428 15.996 11.12 15.996C10.9707 15.996 10.826 15.968 10.686 15.912C10.5553 15.856 10.4387 15.7813 10.336 15.688C10.2333 15.5947 10.1493 15.4827 10.084 15.352C10.028 15.2213 10 15.0813 10 14.932Z" fill="#EC1C24"/>
</g>
</g>
</g>
</svg>