<svg xmlns="http://www.w3.org/2000/svg" viewBox="0 0 14.634 19.635" width="14.634" height="19.635">
	<defs>
		<style>
			.shape              { fill: #000; }
			#high:target .shape { fill: #000; }
		</style>
	</defs>
	<title>Profiel icon</title>
	<g id="high">
		<path class="shape" d="M7.32,0A4.589,4.589,0,1,1,2.732,4.589,4.589,4.589,0,0,1,7.32,0Z"/>
		<path class="shape" d="M7.317,19.635A10.18,10.18,0,0,1,.783,17.272,2.075,2.075,0,0,1,0,15.7a4.628,4.628,0,0,1,4.651-4.622h5.34A4.621,4.621,0,0,1,14.634,15.7a2.075,2.075,0,0,1-.783,1.573,10.178,10.178,0,0,1-6.534,2.364Z"/>
	</g>
</svg>
