<svg xmlns="http://www.w3.org/2000/svg" width="41" height="41" viewBox="0 0 41 41">
    <g fill="none" fill-rule="evenodd">
        <circle cx="20.5" cy="20.5" r="20.5" fill="#EC0000"/>
        <path fill="#FFF" d="M19.21 12.216c.607-.606 1.376-.793 2.138-.527.764.265 1.084 1.005 1.2 1.218l-.007-.013c.579-.486 1.28-.62 1.976-.377.763.265 1.2 1.217 1.2 1.217.286-.306.522-.597.797-.848.615-.559 1.577-.65 2.286-.241.737.426 1.153 1.288.934 2.095-.106.396-.353.754-.543 1.143-.027-.018-.006.005.02.013 1.175.35 1.774 2.09.59 3.212-.229.216-.46.43-.726.679 1.469.594 1.756 2.329.61 3.422-2.425 2.315-4.766 4.717-7.174 7.05-2.014 1.952-4.443 2.627-7.198 2.036-.27-.058-.537-.131-.8-.218-.363.052-.734.077-1.112.075-.595-.002-1.209-.072-1.839-.207-1.533-.329-3.005-1.153-3.908-2.242-.904-1.087-1.183-1.754-1.183-1.754-.564-1.15-.742-2.322-.719-3.521.04-1.957.718-3.675 2.096-5.083.734-.75 1.478-1.489 2.225-2.225l2.247-2.204c.558-.548 1.213-.584 2.031-.132.819.453.83 1.329.83 1.329.357-.357.707-.71 1.06-1.058.795-.787 2.177-2.048 2.969-2.839zm9.503 1.892c-.207-.585-.94-.782-1.423-.385-.074.06-.14.13-.208.198-2.222 2.195-4.443 4.39-6.666 6.584-.081.08-.162.165-.256.228-.224.15-.5.111-.683-.082-.186-.193-.202-.457-.034-.675.058-.076.13-.142.197-.209l4.745-4.685c.232-.23.425-.475.342-.828-.146-.627-.899-.893-1.419-.503-.091.07-.17.155-.252.235L15.35 21.6c-.075.074-.147.152-.228.218-.237.193-.52.18-.73-.03-.203-.203-.212-.492-.019-.721.055-.066.12-.124.182-.185.92-.909 1.84-1.816 2.759-2.727.542-.537.594-1.285.135-1.89-.192-.255-.464-.292-.69-.07-1.52 1.5-3.088 2.96-4.542 4.52-2.324 2.495-2.231 6.356.127 8.788 1.096 1.131 2.93 1.852 4.87 1.852 1.643-.024 3.225-.613 4.511-1.87 2.466-2.412 4.911-4.842 7.363-7.266.383-.38.4-.937.052-1.28-.343-.34-.915-.321-1.295.05-1.18 1.164-2.355 2.333-3.544 3.487-.131.129-.348.246-.518.237-.155-.007-.368-.163-.43-.308-.064-.141.009-.356.062-.527.027-.089.137-.154.212-.229 1.813-1.79 3.627-3.58 5.439-5.372.354-.35.432-.682.248-1.022-.266-.491-.922-.624-1.365-.272-.082.065-.155.143-.229.216l-5.358 5.292c-.068.066-.133.138-.208.197-.228.178-.503.162-.706-.036-.198-.191-.221-.48-.051-.7.058-.074.131-.139.2-.206l6.808-6.724c.26-.257.444-.534.309-.914zm-15.015 1.807c-.193-.254-.463-.292-.69-.07-1.52 1.5-3.088 2.96-4.543 4.52-2.323 2.494-2.23 6.357.128 8.79.747.77 1.837 1.35 3.068 1.642.214.05.433.092.654.125-.343-.264-.65-.556-.91-.869-.904-1.088-1.183-1.754-1.183-1.754-.564-1.151-.744-2.323-.72-3.522.04-1.956.719-3.674 2.097-5.082.734-.75 1.477-1.49 2.225-2.227.282-.487.243-1.067-.126-1.553zm7.86-2.488c-.145-.628-.898-.894-1.418-.504-.092.07-.17.155-.252.236l-2.16 1.918c.124.053.252.116.383.189.818.452.637 1.457.637 1.457.359-.358.89-.97 1.243-1.319.796-.787 1.595-1.57 2.387-2.36l-.899.891c.086-.146.126-.31.08-.508zm12.417-.934c.288-.141.641-.03.788.248.147.28.033.62-.255.763l-2.039 1.104c-.289.142-.642.03-.788-.248-.147-.28-.033-.62.256-.762zM31.67 9.321c.221-.228.592-.241.828-.027.237.213.25.572.03.8l-1.751 1.772c-.221.228-.592.241-.828.027-.237-.213-.25-.572-.03-.8zm-3.685-1.8c.127-.29.47-.423.77-.3.297.122.436.454.31.742l-1.015 2.132c-.127.288-.471.422-.769.3-.297-.122-.436-.455-.31-.742z"/>
    </g>
</svg>
