<svg xmlns="http://www.w3.org/2000/svg" viewBox="0 0 17 19" width="17" height="19"><defs><style>.cls-1{fill:none;}.cls-2{fill:#fff;}</style></defs><title>stemtool asset-reacties-settings-verwijder icon</title><g id="Layer_2" data-name="Layer 2"><g id="Layer_1-2" data-name="Layer 1"><path class="cls-1" d="M8.719,7.262a.931.931,0,0,0-1,.843v7.719a.932.932,0,0,0,1,.844.932.932,0,0,0,1-.844V8.105A.932.932,0,0,0,8.719,7.262Z"/><path class="cls-1" d="M10.629,1.861H6.81a.7.7,0,0,0-.7.7v.8h5.22v-.8A.7.7,0,0,0,10.629,1.861Z"/><path class="cls-1" d="M4.755,7.262a.932.932,0,0,0-1,.843v7.719a.932.932,0,0,0,1,.844.932.932,0,0,0,1-.844V8.105A.931.931,0,0,0,4.755,7.262Z"/><path class="cls-1" d="M12.682,7.262a.932.932,0,0,0-1,.843v7.719a.932.932,0,0,0,1,.844.932.932,0,0,0,1-.844V8.105A.931.931,0,0,0,12.682,7.262Z"/><path class="cls-2" d="M16.509,3.359H13.19V1.772A1.772,1.772,0,0,0,11.418,0H6.02A1.771,1.771,0,0,0,4.249,1.771V3.359H.93a.931.931,0,0,0,0,1.861h.552V16.964a2,2,0,0,0,2,2H13.958a2,2,0,0,0,2-2V5.22h.552a.931.931,0,0,0,0-1.861ZM5.755,15.824a.932.932,0,0,1-1,.844.932.932,0,0,1-1-.844V8.105a.932.932,0,0,1,1-.843.931.931,0,0,1,1,.843Zm3.964,0a.932.932,0,0,1-1,.844.932.932,0,0,1-1-.844V8.105a.931.931,0,0,1,1-.843.932.932,0,0,1,1,.843Zm1.61-12.465H6.109v-.8a.7.7,0,0,1,.7-.7h3.819a.7.7,0,0,1,.7.7Zm2.353,12.465a.932.932,0,0,1-1,.844.932.932,0,0,1-1-.844V8.105a.932.932,0,0,1,1-.843.931.931,0,0,1,1,.843Z"/></g></g></svg>