<svg xmlns="http://www.w3.org/2000/svg" viewBox="0 0 24.215 24.192" width="24" height="24">
	<defs><style>.cls-1{fill:#fff;}</style></defs>
	<title>stemtool asset-reacties-settings-edit icon</title>
	
	<g id="Layer_2" data-name="Layer 2">
		<g id="Layer_1-2" data-name="Layer 1">
			<path class="cls-1" d="M2.137,18.823l.014.016a1.375,1.375,0,0,0-.463.574L.071,23.373a.621.621,0,0,0,.062.686.552.552,0,0,0,.511.117.947.947,0,0,0,.175-.054l3.962-1.617a1.381,1.381,0,0,0,.575-.463l.014.014.534-.531L2.668,18.29Z"/>
			<rect class="cls-1" x="2.855" y="9.82" width="18.382" height="4.655" transform="translate(-5.062 12.074) rotate(-44.994)"/>
			<path class="cls-1" d="M23.957,2.583,21.705.331c-.417-.416-.7-.434-1.048-.086L18.213,2.689,21.505,5.98l2.457-2.457A.56.56,0,0,0,23.957,2.583Z"/>
		</g>
		</g>
</svg>