<svg xmlns="http://www.w3.org/2000/svg" width="36" height="40" viewBox="0 0 36 40">
    <g fill="none" fill-rule="evenodd">
        <path fill="#164995" d="M13.41 35.41C5.691 33.38 0 26.354 0 18 0 8.059 8.059 0 18 0s18 8.059 18 18c0 8.355-5.692 15.38-13.41 17.41L18 40l-4.59-4.59z"/>
        <path fill="#FFF" d="M15.44 14.942h5.223v11.894h-5.224V14.942zm-.091-3.438c0-.361.071-.704.215-1.029.143-.324.339-.606.588-.848.248-.24.538-.433.87-.576a2.652 2.652 0 0 1 1.063-.215c.362 0 .7.072 1.018.215.316.143.599.335.847.576.25.242.445.524.588.848.144.325.215.668.215 1.03a2.572 2.572 0 0 1-.803 1.888 2.893 2.893 0 0 1-.847.554 2.556 2.556 0 0 1-1.018.203 2.814 2.814 0 0 1-1.933-.758 2.572 2.572 0 0 1-.803-1.888z"/>
    </g>
</svg>
