<svg xmlns="http://www.w3.org/2000/svg" width="60" height="60" viewBox="0 0 60 60">
    <g fill="none" fill-rule="evenodd">
        <path fill="#2867B2" fill-rule="nonzero" d="M29.92 0C13.395 0 0 13.396 0 29.92c0 16.523 13.396 29.919 29.92 29.919 16.523 0 29.919-13.396 29.919-29.92C59.839 13.396 46.443 0 29.919 0z"/>
        <path fill="#FFF" d="M47 32.005V44h-7.075V32.808c0-2.81-1.02-4.729-3.582-4.729-1.955 0-3.116 1.292-3.63 2.543-.185.447-.233 1.068-.233 1.695V44h-7.076s.095-18.954 0-20.916h7.076v2.964c-.014.023-.034.046-.047.068h.047v-.068c.94-1.422 2.617-3.456 6.376-3.456 4.654 0 8.144 2.99 8.144 9.414zM18.003 13C15.583 13 14 14.562 14 16.613c0 2.009 1.537 3.615 3.91 3.615h.046c2.468 0 4.002-1.606 4.002-3.615C21.911 14.562 20.424 13 18.003 13zM14.42 44h7.073V23.083H14.42V44z"/>
    </g>
</svg>
