<svg xmlns="http://www.w3.org/2000/svg" width="99" height="69" viewBox="0 0 99 69">
    <g fill="#EC1C24" fill-rule="nonzero">
        <path d="M38.63 8.809a8.012 8.012 0 0 1-3.829.915A4.635 4.635 0 0 1 29.912 4.9 4.655 4.655 0 0 1 34.8 0a5.28 5.28 0 0 1 3.646 1.163l-1.214 1.229a3.5 3.5 0 0 0-2.418-.9A3.138 3.138 0 0 0 31.638 4.8a3.176 3.176 0 0 0 3.176 3.437 4.433 4.433 0 0 0 2.169-.484V5.568h-1.895v-1.49h3.542v4.731zM41.688 6.9a1.626 1.626 0 0 0 1.686 1.49 2.06 2.06 0 0 0 1.686-.85l1.124.85a3.42 3.42 0 0 1-6.064-2.038 3.252 3.252 0 0 1 3.411-3.294c1.752 0 2.941 1.229 2.941 3.412v.43h-4.784zM44.9 5.725a1.444 1.444 0 0 0-1.6-1.49 1.56 1.56 0 0 0-1.621 1.49H44.9zM47.87 3.215h1.49V4.2h.027a1.993 1.993 0 0 1 1.921-1.137 1.913 1.913 0 0 1 1.96 1.164 2.184 2.184 0 0 1 2.065-1.164c1.673 0 2.261 1.19 2.261 2.693v3.733h-1.568V5.934c0-.785-.235-1.464-1.163-1.464-.98 0-1.346.81-1.346 1.62v3.4h-1.569V5.751c0-.771-.313-1.281-1.072-1.281a1.406 1.406 0 0 0-1.437 1.594v3.425H47.87V3.215zM60.561 6.9a1.626 1.626 0 0 0 1.686 1.49 2.062 2.062 0 0 0 1.686-.85l1.124.85a3.42 3.42 0 0 1-6.064-2.039A3.252 3.252 0 0 1 62.4 3.058c1.751 0 2.941 1.229 2.941 3.412v.43h-4.78zm3.215-1.176a1.443 1.443 0 0 0-1.594-1.49 1.56 1.56 0 0 0-1.621 1.49h3.215zM68.063 6.9a1.626 1.626 0 0 0 1.686 1.49 2.062 2.062 0 0 0 1.686-.85l1.124.85A3.42 3.42 0 0 1 66.5 6.352a3.252 3.252 0 0 1 3.411-3.294c1.751 0 2.941 1.229 2.941 3.412v.43h-4.789zm3.215-1.176a1.443 1.443 0 0 0-1.594-1.49 1.56 1.56 0 0 0-1.621 1.49h3.215zM74.311 3.215H75.8v1.007h.026a1.965 1.965 0 0 1 1.921-1.164 2.185 2.185 0 0 1 2.287 2.47v3.961h-1.567V6.313c0-.693-.052-1.843-1.15-1.843a1.406 1.406 0 0 0-1.438 1.594v3.425h-1.568V3.215zM81.081 4.548V3.215h1.294V1.4h1.568v1.815h1.725v1.333h-1.725v2.745c0 .627.183 1.019.876 1.019.296.012.59-.057.849-.2v1.32c-.396.148-.818.22-1.241.209-1.66 0-2.052-.745-2.052-2.221V4.548h-1.294zM88.151 6.9a1.626 1.626 0 0 0 1.686 1.49 2.062 2.062 0 0 0 1.686-.85l1.124.85a3.42 3.42 0 0 1-6.064-2.039 3.252 3.252 0 0 1 3.411-3.294c1.751 0 2.941 1.229 2.941 3.412V6.9h-4.784zm3.215-1.176a1.443 1.443 0 0 0-1.594-1.49 1.56 1.56 0 0 0-1.621 1.49h3.215zM33.5 13.585h1.424l3.986 9.253h-1.881l-.862-2.117h-4.013l-.836 2.117h-1.843l4.025-9.253zm2.091 5.725l-1.425-3.765-1.45 3.765h2.875zM39.163 16.565h1.49v.98h.026a2 2 0 0 1 1.921-1.137 1.914 1.914 0 0 1 1.96 1.163 2.185 2.185 0 0 1 2.065-1.163c1.673 0 2.261 1.189 2.261 2.692v3.738h-1.567v-3.555c0-.784-.235-1.463-1.163-1.463-.981 0-1.347.81-1.347 1.62v3.4h-1.568V19.1c0-.771-.314-1.28-1.072-1.28a1.406 1.406 0 0 0-1.437 1.594v3.424h-1.569v-6.273zM53.945 18.3a1.422 1.422 0 0 0-1.228-.64c-.418 0-.915.2-.915.666 0 1.124 3.385.209 3.385 2.654 0 1.489-1.425 2.012-2.7 2.012a3.069 3.069 0 0 1-2.445-.967l1.046-.98c.352.472.901.756 1.49.771.457 0 1.046-.222 1.046-.719 0-1.294-3.385-.274-3.385-2.666 0-1.4 1.254-2.026 2.522-2.026a2.715 2.715 0 0 1 2.235.954l-1.051.941zM55.67 17.9v-1.335h1.294v-1.817h1.569v1.817h1.725V17.9h-1.725v2.745c0 .627.183 1.019.875 1.019.296.012.59-.057.85-.2v1.32c-.396.15-.818.224-1.242.216-1.66 0-2.052-.745-2.052-2.222V17.9H55.67zM62.741 20.251a1.625 1.625 0 0 0 1.686 1.489 2.061 2.061 0 0 0 1.686-.849l1.124.849a3.355 3.355 0 1 1-2.653-5.332c1.751 0 2.941 1.229 2.941 3.411v.432h-4.784zm3.215-1.177a1.443 1.443 0 0 0-1.594-1.49 1.56 1.56 0 0 0-1.621 1.49h3.215zM68.988 16.565h1.569v.993h.026A2.008 2.008 0 0 1 73 16.5v1.516a3.121 3.121 0 0 0-.758-.118 1.577 1.577 0 0 0-1.686 1.581v3.359h-1.568v-6.273zM78.817 21.9h-.026a2.419 2.419 0 0 1-2.157 1.1 3.044 3.044 0 0 1-3.1-3.293 3.077 3.077 0 0 1 3.032-3.294 2.581 2.581 0 0 1 2.13.954h.039v-4.4h1.569v9.88h-1.49l.003-.947zm-1.869-.313a1.882 1.882 0 1 0-1.843-1.887 1.816 1.816 0 0 0 1.843 1.884v.003zM86.005 21.976h-.039A2.253 2.253 0 0 1 83.953 23a2.04 2.04 0 0 1-2.287-1.882c0-2.039 2.379-2.183 3.947-2.183h.392v-.169c0-.772-.6-1.177-1.438-1.177-.62 0-1.217.234-1.673.654l-.823-.824a3.679 3.679 0 0 1 2.666-1.006c2.68 0 2.68 1.934 2.68 2.823v3.607h-1.412v-.867zm-.091-1.948h-.327c-.863 0-2.353.066-2.353.967 0 .576.589.824 1.1.824 1.072 0 1.582-.562 1.582-1.438l-.002-.353zM89.037 16.565h1.49v.98h.026a2 2 0 0 1 1.922-1.137 1.914 1.914 0 0 1 1.96 1.163 2.184 2.184 0 0 1 2.065-1.163c1.673 0 2.261 1.189 2.261 2.692v3.738h-1.568v-3.555c0-.784-.235-1.463-1.163-1.463-.981 0-1.347.81-1.347 1.62v3.4h-1.568V19.1c0-.771-.314-1.28-1.072-1.28a1.406 1.406 0 0 0-1.437 1.594v3.424h-1.569v-6.273zM0 64.258l6.018-6.018L0 52.221l4.012-4.013 6.019 6.019 6.019-6.019 4.012 4.013-6.018 6.019 6.018 6.018-4.012 4.013-6.019-6.019-6.019 6.019zM.001 16.071l6.018-6.019L.001 4.033 4.012.021l6.02 6.018L16.05.021l4.013 4.012-6.019 6.019 6.019 6.019-4.013 4.012-6.018-6.019-6.018 6.019zM.001 40.185l6.018-6.018-6.018-6.019 4.012-4.013 6.019 6.019 6.018-6.019 4.013 4.013-6.019 6.019 6.019 6.018-4.013 4.012-6.018-6.018-6.019 6.018z"/>
    </g>
</svg>
