<svg xmlns="http://www.w3.org/2000/svg" xmlns:xlink="http://www.w3.org/1999/xlink" width="30" height="30" viewBox="0 0 30 30">
    <defs>
        <path id="a" d="M0 0h20v19.983H0z"/>
    </defs>
    <g fill="none" fill-rule="evenodd">
        <path fill="#666" d="M0 0h30v30H0z"/>
        <g transform="translate(5 5)">
            <mask id="b" fill="#fff">
                <use xlink:href="#a"/>
            </mask>
            <path fill="#FFF" d="M20 9.743c0 5.38-4.396 9.742-9.818 9.742-1.722 0-3.34-.44-4.746-1.212L0 20l1.772-5.227a9.64 9.64 0 0 1-1.408-5.03C.364 4.362 4.759 0 10.182 0 15.604 0 20 4.362 20 9.743zm-9.818-8.191c-4.553 0-8.255 3.674-8.255 8.19 0 1.792.584 3.452 1.572 4.803l-1.03 3.042 3.171-1.008a8.254 8.254 0 0 0 4.542 1.354c4.551 0 8.254-3.674 8.254-8.19 0-4.517-3.703-8.191-8.254-8.191zm4.958 10.435c-.06-.1-.221-.16-.461-.28-.24-.118-1.425-.697-1.645-.776-.22-.08-.382-.12-.542.12-.16.238-.621.776-.762.936-.14.16-.28.179-.521.06-.241-.12-1.017-.373-1.936-1.185-.715-.634-1.198-1.415-1.34-1.654-.139-.239-.013-.368.106-.487.109-.108.241-.28.362-.418.12-.14.16-.24.24-.4.08-.159.04-.298-.02-.417-.06-.12-.542-1.295-.742-1.773-.2-.477-.4-.398-.542-.398-.14 0-.3-.02-.46-.02-.161 0-.422.06-.642.299-.22.238-.842.817-.842 1.99 0 1.176.861 2.312.982 2.47.12.16 1.664 2.65 4.111 3.606s2.447.637 2.888.597c.441-.04 1.424-.578 1.625-1.135.2-.558.2-1.036.141-1.135z" mask="url(#b)"/>
        </g>
    </g>
</svg>
