<svg xmlns="http://www.w3.org/2000/svg" viewBox="3393 734 60 60" width="60px" height="60px">
  <defs>
    <style>
      .cls-1 {
        fill: #1da1f2;
      }

      .cls-2 {
        fill: #fff;
      }
    </style>
  </defs>
  <g id="Group_1625" data-name="Group 1625" transform="translate(2010 -62)">
    <rect id="Rectangle_440" data-name="Rectangle 440" class="cls-1" width="60" height="60" rx="1" transform="translate(1383 796)"/>
    <path id="Path_426" data-name="Path 426" class="cls-2" d="M13.708,35.438c16.446,0,25.445-13.638,25.445-25.445,0-.384,0-.767-.017-1.151A18.219,18.219,0,0,0,43.6,4.2a18.125,18.125,0,0,1-5.145,1.413A9,9,0,0,0,42.4.663a17.789,17.789,0,0,1-5.685,2.163A8.945,8.945,0,0,0,21.242,8.947a9.884,9.884,0,0,0,.227,2.04A25.456,25.456,0,0,1,3.035,1.639,8.979,8.979,0,0,0,5.807,13.586a9.182,9.182,0,0,1-4.063-1.116v.122a8.962,8.962,0,0,0,7.168,8.772,8.995,8.995,0,0,1-4.029.157,8.943,8.943,0,0,0,8.354,6.209A17.936,17.936,0,0,1,2.128,31.566,17.21,17.21,0,0,1,0,31.444a25.543,25.543,0,0,0,13.708,3.994" transform="translate(1391.576 808.281)"/>
  </g>
</svg>
