<svg xmlns="http://www.w3.org/2000/svg" viewBox="0 0 42.197 32.88"><defs><style>.cls-1{fill:none;}.cls-2{fill:#bebebe;}.cls-3{fill:#efce4a;}</style></defs><title>grijze button-verdeel sterren</title><g id="Layer_2" data-name="Layer 2"><g id="Layer_1-2" data-name="Layer 1"><polygon class="cls-1" points="14.972 18.818 14.507 17.875 12.454 13.713 10.4 17.875 9.935 18.818 8.894 18.969 4.298 19.637 7.623 22.877 8.375 23.611 8.198 24.647 7.413 29.224 11.523 27.064 12.454 26.575 13.384 27.064 17.493 29.224 16.708 24.647 16.531 23.611 17.284 22.877 18.922 21.281 19.455 19.469 16.013 18.969 14.972 18.818"/><polygon class="cls-2" points="18.922 21.281 17.284 22.877 16.531 23.611 16.708 24.647 17.493 29.224 13.384 27.064 12.454 26.575 11.523 27.064 7.413 29.224 8.198 24.647 8.375 23.611 7.623 22.877 4.298 19.637 8.894 18.969 9.935 18.818 10.4 17.875 12.454 13.713 14.507 17.875 14.972 18.818 16.013 18.969 19.455 19.469 20.026 17.531 16.3 16.99 12.454 9.192 8.606 16.99 0 18.241 6.227 24.309 4.757 32.88 12.454 28.834 20.149 32.88 18.82 25.128 17.658 25.575 18.922 21.281"/><polygon class="cls-3" points="42.197 11.791 32.703 9.259 29.407 0 24.064 8.246 14.242 8.519 20.433 16.15 20.026 17.531 19.455 19.469 18.922 21.281 17.658 25.575 18.82 25.128 26.828 22.045 34.934 27.598 34.41 17.784 42.197 11.791"/></g></g></svg>