<svg xmlns="http://www.w3.org/2000/svg" viewBox="-2532.75 1312.642 31.982 27.882" width="31.982px" height="27.882px">
  <defs>
    <style>
      .cls-1 {
        fill: none;
        stroke: #fff;
        stroke-width: 1.5px;
      }
    </style>
  </defs>
  <g id="Group_1587" data-name="Group 1587" transform="translate(-2532 1313.392)">
    <path id="Path_415" data-name="Path 415" class="cls-1" d="M4.35.3H2.422A2.412,2.412,0,0,0,0,2.722v13.23a2.412,2.412,0,0,0,2.422,2.422H4.35a2.412,2.412,0,0,0,2.422-2.422V2.722A2.47,2.47,0,0,0,4.35.3Zm0,0" transform="translate(0 -0.165)"/>
    <path id="Path_416" data-name="Path 416" class="cls-1" d="M38.257,3.274a3.83,3.83,0,0,0-.807-1.659L36.6.673A2.623,2.623,0,0,0,34.984,0L19.242.359a.958.958,0,0,0-.942.987l.4,16.145a2.236,2.236,0,0,0,.807,1.525,22.8,22.8,0,0,1,4.53,4.44,12.54,12.54,0,0,0,1.121,1.57,5.055,5.055,0,0,0,4.53,1.256.8.8,0,0,0,.583-1.121l-2.287-6.01a.663.663,0,0,1,.628-.942l8.925-.224a4.127,4.127,0,0,0,1.794-.493l.538-.269a1.475,1.475,0,0,0,.673-1.39Zm0,0" transform="translate(-10.093)"/>
  </g>
</svg>
