<svg xmlns="http://www.w3.org/2000/svg" viewBox="0 0 36.42 25.95" width="36.42" height="25.95"><defs><style>.cls-1{fill:#fff;}</style></defs><title>stem-voor</title><g id="Layer_2" data-name="Layer 2"><g id="IDEE_DETAIL" data-name="IDEE DETAIL"><g id="Group_1425" data-name="Group 1425"><g id="Group_1424" data-name="Group 1424"><path id="Path_365" data-name="Path 365" class="cls-1" d="M25.53,25.65h1.89a2.36,2.36,0,0,0,2.37-2.35s0,0,0,0V10.35A2.36,2.36,0,0,0,27.43,8H25.53a2.36,2.36,0,0,0-2.37,2.35s0,0,0,0V23.28A2.41,2.41,0,0,0,25.53,25.65Z"/><path id="Path_366" data-name="Path 366" class="cls-1" d="M2.25,22.58A3.74,3.74,0,0,0,3,24.2l.83.92a2.57,2.57,0,0,0,1.58.66l15.39-.35a.94.94,0,0,0,.92-1h0L21.36,8.68a2.19,2.19,0,0,0-.79-1.49,22.29,22.29,0,0,1-4.43-4.34A12.26,12.26,0,0,0,15,1.31,4.94,4.94,0,0,0,10.62.09a.78.78,0,0,0-.57,1.1l2.24,5.88a.65.65,0,0,1-.61.92L2.95,8.2a4,4,0,0,0-1.75.48l-.53.26A1.44,1.44,0,0,0,0,10.3Z"/></g></g><rect class="cls-1" x="35.42" y="1.54" width="1" height="24.41"/></g></g></svg>