<svg xmlns="http://www.w3.org/2000/svg" width="60" height="60" viewBox="0 0 60 60">
    <g fill="none" fill-rule="evenodd">
        <path fill="#25D366" fill-rule="nonzero" d="M29.92 0C13.395 0 0 13.396 0 29.92c0 16.523 13.396 29.919 29.92 29.919 16.523 0 29.919-13.396 29.919-29.92C59.839 13.396 46.443 0 29.919 0z"/>
        <path fill="#FFF" fill-rule="nonzero" d="M12.775 48.813c-.126 0-.247-.05-.338-.14-.118-.121-.165-.297-.12-.46l2.507-9.154c-1.554-2.76-2.374-5.895-2.372-9.078.003-10.205 8.307-18.506 18.511-18.506 4.95.002 9.6 1.93 13.095 5.427 3.495 3.5 5.419 8.148 5.417 13.092C49.471 40.198 41.166 48.5 30.963 48.5c-3.03 0-6.027-.748-8.687-2.163l-9.38 2.46c-.04.011-.08.016-.121.016z"/>
        <path fill="#25D366" fill-rule="nonzero" d="M41.567 19.39c-2.83-2.832-6.594-4.393-10.599-4.394-8.269 0-14.994 6.722-14.998 14.985 0 2.832.792 5.589 2.293 7.976l.357.567-1.515 5.53 5.674-1.487.548.325c2.301 1.366 4.94 2.088 7.63 2.089h.006c8.263 0 14.988-6.724 14.991-14.988.001-4.004-1.556-7.77-4.387-10.603z"/>
        <path fill="#FFF" d="M26.455 22.443c-.338-.75-.693-.766-1.015-.78-.263-.01-.563-.01-.864-.01-.3 0-.788.113-1.201.565-.414.45-1.578 1.54-1.578 3.758 0 2.217 1.615 4.36 1.84 4.66.225.3 3.118 4.997 7.699 6.803 3.806 1.501 4.582 1.203 5.408 1.128.827-.075 2.667-1.09 3.042-2.142.375-1.053.375-1.954.263-2.142-.113-.189-.413-.3-.863-.527-.45-.226-2.667-1.315-3.08-1.466-.414-.15-.714-.225-1.015.227-.3.45-1.164 1.465-1.427 1.766-.263.3-.526.339-.976.113-.45-.226-1.902-.701-3.625-2.237-1.34-1.194-2.244-2.67-2.507-3.12-.263-.45-.028-.695.198-.92.202-.202.45-.526.676-.79.225-.263.3-.45.45-.75.15-.302.076-.565-.037-.79-.112-.226-.988-2.455-1.388-3.346z"/>
    </g>
</svg>
