<?xml version="1.0" encoding="UTF-8"?>
<svg width="12px" height="7px" viewBox="0 0 12 7" version="1.1" xmlns="http://www.w3.org/2000/svg" xmlns:xlink="http://www.w3.org/1999/xlink">
    <!-- Generator: Sketch 53.2 (72643) - https://sketchapp.com -->
    <title></title>
    <desc>Created with Sketch.</desc>
    <g id="Page-1" stroke="none" stroke-width="1" fill="none" fill-rule="evenodd">
        <g id="AGV" transform="translate(-1651.000000, -2196.000000)" fill="#000000" fill-rule="nonzero">
            <path d="M1662.99778,2197.07142 C1662.99778,2197.1607 1662.95314,2197.26115 1662.88617,2197.32811 L1657.68528,2202.52901 C1657.61831,2202.59598 1657.51786,2202.64062 1657.42858,2202.64062 C1657.33929,2202.64062 1657.23885,2202.59598 1657.17188,2202.52901 L1651.97098,2197.32811 C1651.90402,2197.26115 1651.85938,2197.1607 1651.85938,2197.07142 C1651.85938,2196.98213 1651.90402,2196.88169 1651.97098,2196.81472 L1652.52902,2196.25668 C1652.59598,2196.18972 1652.68527,2196.14508 1652.78572,2196.14508 C1652.875,2196.14508 1652.97545,2196.18972 1653.04241,2196.25668 L1657.42858,2200.64285 L1661.81475,2196.25668 C1661.88171,2196.18972 1661.98216,2196.14508 1662.07144,2196.14508 C1662.16073,2196.14508 1662.26117,2196.18972 1662.32814,2196.25668 L1662.88617,2196.81472 C1662.95314,2196.88169 1662.99778,2196.98213 1662.99778,2197.07142 Z" id=""></path>
        </g>
    </g>
</svg>