<svg xmlns="http://www.w3.org/2000/svg" width="49" height="47" viewBox="0 0 49 47">
    <g fill="none" fill-rule="evenodd" transform="translate(.6 .2)">
        <ellipse cx="24" cy="23.2" fill="#FFF" stroke="#EC0000" stroke-width=".973" rx="23.514" ry="22.714"/>
        <path fill="#EC0000" d="M22.49 13.825c.71-.686 1.61-.897 2.503-.597.894.3 1.269 1.137 1.404 1.379l-.007-.015c.677-.55 1.499-.702 2.313-.427.893.3 1.404 1.378 1.404 1.378.336-.346.612-.675.934-.96.72-.632 1.846-.735 2.676-.273.863.482 1.35 1.458 1.094 2.372-.125.448-.414.853-.636 1.293-.031-.02-.007.006.023.015 1.376.396 2.078 2.365.692 3.634-.269.246-.54.488-.85.77 1.718.671 2.055 2.635.714 3.872-2.84 2.62-5.58 5.338-8.4 7.978-2.358 2.21-5.201 2.973-8.427 2.304-.317-.066-.631-.149-.94-.248l-.122.018c-.385.048-.777.07-1.176.069-.696-.003-1.415-.082-2.153-.234-1.794-.373-3.518-1.306-4.575-2.537-1.058-1.231-1.385-1.986-1.385-1.986-.66-1.301-.87-2.628-.842-3.985.047-2.215.841-4.158 2.454-5.752 1.718-1.696 3.483-3.348 5.235-5.013.653-.62 1.42-.66 2.379-.148.958.512.97 1.503.97 1.503.419-.404.829-.803 1.242-1.197.931-.89 2.549-2.317 3.476-3.213zm11.125 2.141c-.242-.662-1.1-.885-1.666-.435-.086.068-.164.147-.244.224-2.6 2.484-5.201 4.968-7.803 7.45-.096.091-.19.187-.3.259-.263.169-.585.125-.8-.093-.218-.218-.236-.518-.04-.765.069-.085.152-.16.231-.235 1.852-1.768 3.703-3.536 5.555-5.302.272-.26.498-.538.401-.938-.171-.709-1.053-1.01-1.661-.568-.107.077-.2.174-.295.265l-9.024 8.616c-.088.085-.172.173-.267.248-.277.218-.61.203-.853-.034-.238-.23-.25-.557-.023-.817.064-.074.14-.14.212-.208 1.078-1.029 2.155-2.056 3.23-3.087.636-.608.696-1.455.159-2.139-.225-.288-.543-.33-.807-.079-1.78 1.698-3.616 3.349-5.318 5.115-2.722 2.824-2.613 7.194.149 9.946 1.283 1.28 3.43 2.096 5.702 2.096 1.923-.027 3.775-.694 5.28-2.117 2.887-2.729 5.75-5.48 8.62-8.223.449-.43.467-1.06.06-1.448-.4-.385-1.07-.364-1.515.057-1.382 1.316-2.757 2.64-4.15 3.946-.153.145-.407.278-.606.268-.18-.008-.43-.185-.504-.348-.074-.16.011-.403.074-.597.031-.1.16-.175.248-.26 2.122-2.026 4.246-4.05 6.367-6.079.415-.396.507-.772.29-1.156-.311-.556-1.079-.706-1.597-.309-.096.074-.181.162-.268.246-2.092 1.995-4.182 3.991-6.273 5.988-.08.075-.155.156-.243.223-.267.202-.59.184-.827-.04-.232-.217-.26-.543-.06-.792.068-.085.154-.158.233-.234L33.253 17c.305-.29.52-.604.362-1.034zm-17.578 2.045c-.226-.287-.543-.33-.808-.078-1.78 1.697-3.615 3.348-5.318 5.115-2.72 2.822-2.612 7.194.15 9.947.874.872 2.15 1.527 3.591 1.858.25.057.504.104.763.14-.4-.298-.76-.628-1.063-.982-1.059-1.231-1.385-1.985-1.385-1.985-.66-1.302-.87-2.628-.842-3.985.045-2.214.841-4.159 2.454-5.752.86-.85 1.73-1.687 2.606-2.52.33-.552.283-1.208-.148-1.758zm9.202-2.816c-.17-.71-1.052-1.012-1.66-.57-.108.078-.2.175-.296.267l-2.527 2.17c.145.06.294.132.447.215.957.512.746 1.648.746 1.648.42-.404 1.042-1.096 1.455-1.492.932-.89 1.868-1.776 2.795-2.671l-1.054 1.011c.1-.166.149-.353.094-.578zm14.537-1.056c.337-.16.75-.036.922.28.173.316.038.702-.299.863l-2.387 1.25c-.338.16-.751.035-.922-.28-.172-.317-.038-.702.3-.863zm-2.698-3.59c.258-.259.692-.273.969-.031.277.241.292.647.035.906l-2.05 2.004c-.26.259-.694.274-.97.032-.278-.242-.293-.648-.035-.906zM32.763 8.51c.149-.327.551-.478.9-.34.349.139.512.515.364.841l-1.188 2.412c-.149.326-.552.479-.9.34-.348-.138-.511-.514-.364-.84z"/>
    </g>
</svg>
