<svg xmlns="http://www.w3.org/2000/svg" viewBox="0 0 39.312 33.576"><defs><style>.cls-1{fill:#bed200;}.cls-2{fill:#fff;}</style></defs><title>stemtool asset-grijze button-reacties</title><g id="Layer_2" data-name="Layer 2"><g id="Layer_1-2" data-name="Layer 1"><path d="M37.755,8.067H29.276V18.61a1.939,1.939,0,0,1-1.939,1.939H10.029v6.513a1.558,1.558,0,0,0,1.555,1.555H31.232l.413.412L36.2,33.576V28.617h1.555a1.557,1.557,0,0,0,1.557-1.555V9.62A1.555,1.555,0,0,0,37.755,8.067Z"/><path class="cls-1" d="M29.276,18.61V1.939A1.939,1.939,0,0,0,27.337,0H1.939A1.939,1.939,0,0,0,0,1.939V18.61a1.939,1.939,0,0,0,1.939,1.939H4.346v4.7l3.19-3.184L9.05,20.549H27.337A1.939,1.939,0,0,0,29.276,18.61ZM7.734,12.345a1.75,1.75,0,1,1,1.75-1.75A1.75,1.75,0,0,1,7.734,12.345Zm6.875,0a1.75,1.75,0,1,1,1.75-1.75A1.75,1.75,0,0,1,14.609,12.345Zm6.875,0a1.75,1.75,0,1,1,1.75-1.75A1.75,1.75,0,0,1,21.484,12.345Z"/><circle class="cls-2" cx="7.734" cy="10.595" r="1.75"/><circle class="cls-2" cx="14.609" cy="10.595" r="1.75"/><circle class="cls-2" cx="21.484" cy="10.595" r="1.75"/></g></g></svg>