<svg xmlns="http://www.w3.org/2000/svg" viewBox="0 0 36.033 40.053"><defs><style>.cls-1{fill:none;}.cls-2{fill:#004699;}.cls-3{fill:#fff;}</style></defs><title>stemtool asset-grijze button-info</title><g id="Layer_2" data-name="Layer 2"><g id="Layer_1-2" data-name="Layer 1"><polygon class="cls-1" points="15.52 15.458 20.198 15.458 20.198 26.671 20.198 26.671 20.198 15.457 15.52 15.457 15.52 15.458"/><path class="cls-1" d="M15.424,11.346a2.43,2.43,0,0,1,1.943-2.379,2.422,2.422,0,0,0-.934,4.341A2.42,2.42,0,0,1,15.424,11.346Z"/><path class="cls-1" d="M20.292,11.346a2.422,2.422,0,0,1-.713,1.718,2.425,2.425,0,0,0,0-3.435A2.418,2.418,0,0,1,20.292,11.346Z"/><path class="cls-2" d="M36.022,17.809A18.012,18.012,0,0,0,0,18.045c0,.149.019.293.023.441A17.993,17.993,0,0,0,12.566,35.163l.362.362,4.528,4.528L21.908,35.6A18.014,18.014,0,0,0,36.033,18.016C36.032,17.946,36.023,17.879,36.022,17.809ZM20.2,26.671H15.52V15.458H20.2Zm-.619-13.607a2.425,2.425,0,1,1,.713-1.718A2.432,2.432,0,0,1,19.579,13.064Z"/><rect class="cls-3" x="15.52" y="15.458" width="4.678" height="11.213"/><path class="cls-3" d="M19.579,9.629a2.425,2.425,0,1,0,.713,1.717A2.428,2.428,0,0,0,19.579,9.629Z"/></g></g></svg>