<svg xmlns="http://www.w3.org/2000/svg" width="30" height="30" viewBox="0 0 30 30">
    <g fill="none" fill-rule="evenodd">
        <path fill="#2B9AD6" d="M0 0h30v30H0z"/>
        <path fill="#FFF" fill-rule="nonzero" d="M11.4 24.6c8.9 0 13.7-7.4 13.7-13.7v-.6c.9-.7 1.8-1.5 2.4-2.5-.9.4-1.8.6-2.8.8 1-.6 1.8-1.5 2.1-2.7-.9.6-2 1-3.1 1.2-.9-.9-2.1-1.5-3.5-1.5-2.7 0-4.8 2.2-4.8 4.8 0 .4 0 .7.1 1.1-4-.2-7.6-2.1-9.9-5C5.2 7 5 7.9 5 8.8c0 1.7.9 3.2 2.1 4-.8 0-1.5-.2-2.2-.6v.1c0 2.3 1.7 4.3 3.9 4.7-.4.1-.8.2-1.3.2-.3 0-.6 0-.9-.1.6 1.9 2.4 3.3 4.5 3.4-1.7 1.3-3.7 2.1-6 2.1-.4 0-.8 0-1.2-.1 2.2 1.3 4.7 2.1 7.5 2.1"/>
    </g>
</svg>
