<svg xmlns="http://www.w3.org/2000/svg" width="19" height="16" viewBox="0 0 19 16">
    <path fill="#434343" fill-rule="evenodd" d="M16.194 5.333h1.211c.736 0 1.333.597 1.333 1.334v8c0 .736-.597 1.333-1.333 1.333h-1.21a1.333 1.333 0 0 1-1.334-1.333v-8c0-.737.597-1.334 1.333-1.334zM12.307 16h-7.21a2.667 2.667 0 0 1-2.507-1.756L.218 7.718a1.778 1.778 0 0 1 1.67-2.385H7.3a.889.889 0 0 0 .815-1.244L6.873 1.244A.889.889 0 0 1 7.688 0h.936c.513 0 1.002.222 1.34.609l3.464 3.971c.424.486.657 1.108.657 1.753v7.89c0 .981-.796 1.777-1.778 1.777z"/>
</svg>
