<svg xmlns="http://www.w3.org/2000/svg" viewBox="0 0 35.65 27.5" width="35.65" height="27.5"><defs><style>.cls-1{fill:#fff;}</style></defs><title>stem-tegen</title><g id="Layer_2" data-name="Layer 2"><g id="IDEE_DETAIL" data-name="IDEE DETAIL"><g id="Group_1427" data-name="Group 1427"><g id="Group_1426" data-name="Group 1426"><path id="Path_367" data-name="Path 367" class="cls-1" d="M4.25,1.86H2.37A2.36,2.36,0,0,0,0,4.2s0,0,0,0V17.16a2.36,2.36,0,0,0,2.35,2.37H4.25a2.36,2.36,0,0,0,2.37-2.35s0,0,0,0V4.22A2.41,2.41,0,0,0,4.25,1.86Z"/><path id="Path_368" data-name="Path 368" class="cls-1" d="M27.53,4.93a3.74,3.74,0,0,0-.79-1.62l-.83-.92a2.57,2.57,0,0,0-1.58-.66L8.94,2.07A.94.94,0,0,0,8,3H8l.39,15.78a2.19,2.19,0,0,0,.79,1.49,22.29,22.29,0,0,1,4.43,4.34,12.26,12.26,0,0,0,1.1,1.53,4.94,4.94,0,0,0,4.43,1.23.78.78,0,0,0,.57-1.1l-2.24-5.88a.65.65,0,0,1,.61-.92l8.73-.22a4,4,0,0,0,1.75-.48l.53-.26a1.44,1.44,0,0,0,.66-1.36Z"/></g></g><rect class="cls-1" x="34.65" width="1" height="24.41"/></g></g></svg>