<svg xmlns="http://www.w3.org/2000/svg" viewBox="0 0 23 20" width="23" height="20"><defs><style>.cls-1{fill:#fff;}</style></defs><title>_nieuw_top3-duim omhoog</title><g id="Layer_2" data-name="Layer 2"><g id="Layer_1-2" data-name="Layer 1"><g id="Group_1425" data-name="Group 1425"><g id="Group_1424" data-name="Group 1424"><path id="Path_365" data-name="Path 365" class="cls-1" d="M19.715,19.9h1.456A1.825,1.825,0,0,0,23,18.077q0-.008,0-.016V8.027A1.825,1.825,0,0,0,21.187,6.19H19.715a1.825,1.825,0,0,0-1.829,1.821q0,.008,0,.016V18.061A1.869,1.869,0,0,0,19.715,19.9Z"/><path id="Path_366" data-name="Path 366" class="cls-1" d="M1.735,17.517a2.91,2.91,0,0,0,.609,1.259l.643.712A1.978,1.978,0,0,0,4.207,20l11.885-.272a.725.725,0,0,0,.712-.738v-.011L16.5,6.734a1.7,1.7,0,0,0-.609-1.157,17.254,17.254,0,0,1-3.42-3.367,9.51,9.51,0,0,0-.847-1.191A3.8,3.8,0,0,0,8.2.067a.609.609,0,0,0-.44.851L9.49,5.476a.5.5,0,0,1-.243.668.5.5,0,0,1-.231.046l-6.74.171a3.1,3.1,0,0,0-1.355.374l-.406.2a1.12,1.12,0,0,0-.51,1.054Z"/></g></g></g></g></svg>