<svg xmlns="http://www.w3.org/2000/svg" viewBox="0 0 23 20" width="23" height="20"><defs><style>.cls-1{fill:#fff;}</style></defs><title>_nieuw_top3-duim omlaag</title><g id="Layer_2" data-name="Layer 2"><g id="Layer_1-2" data-name="Layer 1"><g id="Group_1425" data-name="Group 1425"><g id="Group_1424" data-name="Group 1424"><path id="Path_365" data-name="Path 365" class="cls-1" d="M3.285.1H1.829A1.825,1.825,0,0,0,0,1.923q0,.008,0,.016V11.973A1.825,1.825,0,0,0,1.813,13.81H3.285a1.825,1.825,0,0,0,1.829-1.821q0-.008,0-.016V1.939A1.869,1.869,0,0,0,3.285.1Z"/><path id="Path_366" data-name="Path 366" class="cls-1" d="M21.265,2.483a2.91,2.91,0,0,0-.609-1.259L20.012.512A1.978,1.978,0,0,0,18.793,0L6.908.272A.725.725,0,0,0,6.2,1.01v.011l.3,12.245a1.7,1.7,0,0,0,.609,1.157,17.254,17.254,0,0,1,3.42,3.367,9.51,9.51,0,0,0,.847,1.191,3.8,3.8,0,0,0,3.42.952.609.609,0,0,0,.44-.851L13.51,14.524a.5.5,0,0,1,.243-.668.5.5,0,0,1,.231-.046l6.74-.171a3.1,3.1,0,0,0,1.355-.374l.406-.2a1.12,1.12,0,0,0,.51-1.054Z"/></g></g></g></g></svg>