<svg xmlns="http://www.w3.org/2000/svg" xmlns:xlink="http://www.w3.org/1999/xlink" width="283" height="246" viewBox="0 0 283 246">
    <defs>
        <path id="a" d="M0 0h289v249H0z"/>
        <path id="c" d="M0 447.78h449.192V0H0z"/>
    </defs>
    <g fill="none" fill-rule="evenodd" transform="translate(-2 -1)">
        <mask id="b" fill="#fff">
            <use xlink:href="#a"/>
        </mask>
        <g mask="url(#b)">
            <g transform="translate(-119.39 -101.684)">
                <path fill="#171112" d="M274.498 162.823c-.344-3.706-3.027-6.793-6.607-7.754l-46.117-12.35h-.138a8.946 8.946 0 0 0-11.013 6.312 8.915 8.915 0 0 0 3.786 9.88c.826.48 1.652.893 2.615 1.167l-15.693 58.254c-1.651 6.038 1.997 12.282 8.053 13.86l24.298 6.52c6.057 1.645 12.321-1.991 13.903-8.03l15.694-58.253c4.75 1.303 9.706-1.51 11.013-6.244a9.145 9.145 0 0 0 .206-3.362M183.78 348.22h30.767v-9.744c0-4.322-3.51-7.822-7.847-7.822-1.17 0-2.272.275-3.304.755l-10.187 3.705c-5.575 1.99-9.36 7.205-9.43 13.106"/>
                <path fill="#171112" d="M199.748 281.046v-.137c0-.275 0-.48.069-.755.62-6.244 6.264-10.842 12.527-10.155 6.126.618 10.669 6.038 10.256 12.145 0 .137 0 .343-.069.48v.068l-7.984 56.745c-.55 4.322-4.474 7.342-8.81 6.793a7.822 7.822 0 0 1-6.884-7.891v-.069l.895-57.224z"/>
                <path fill="#171112" d="M200.643 223.684c0-.343 0-.686.07-1.098.688-8.234 7.983-14.272 16.243-13.586 8.26.687 14.317 7.96 13.628 16.194 0 .274-.069.617-.069.891l-7.915 56.539c-.826 6.244-6.608 10.635-12.872 9.812-5.781-.755-10.048-5.695-9.911-11.527l.895-57.088-.07-.137zM255.983 335.046l-10.187-3.705c-1.032-.481-2.202-.755-3.304-.755-4.336 0-7.846 3.5-7.846 7.822v9.744h30.767c-.138-5.833-3.854-11.048-9.43-13.106"/>
                <path fill="#171112" d="M249.444 281.046v-.892c-.62-6.244-6.264-10.842-12.527-10.155-6.127.618-10.669 6.038-10.257 12.145 0 .137 0 .343.07.48v.068l7.984 56.745c.55 4.322 4.543 7.273 8.81 6.724 3.924-.548 6.883-3.842 6.815-7.822l-.895-57.293z"/>
                <path fill="#171112" d="M248.55 223.684c0-.343 0-.686-.07-1.098-.826-8.234-8.19-14.203-16.381-13.38-8.054.824-14.042 7.891-13.422 15.988 0 .274.068.617.138.891l7.915 56.539c.826 6.244 6.607 10.635 12.872 9.812 5.78-.755 10.049-5.695 9.91-11.527l-.894-57.088-.068-.137z"/>
                <path fill="#171112" d="M248.55 223.89c.206-13.174-10.325-24.084-23.54-24.29-13.216-.206-24.161 10.292-24.368 23.466v.824h47.908zM126.718 160.49c.137 6.93 5.851 12.488 12.803 12.556h6.607c3.718-.068 6.677-3.156 6.609-6.861-.07-3.705-3.167-6.656-6.883-6.587h-.207l-18.929.892z"/>
                <path fill="#171112" d="M139.452 164.607c.963-3.5 4.543-5.695 8.122-4.803l40.748 9.674.207.069a7.789 7.789 0 0 1 5.3 9.743c-1.17 3.98-5.3 6.381-9.362 5.42l-.206-.068-40.198-11.802a6.736 6.736 0 0 1-4.61-8.233"/>
                <path fill="#171112" d="M180.338 182.035c-2.616-3.362-2.134-8.165 1.17-10.91l32.006-26.623c.069-.068.138-.137.207-.137 3.923-3.087 9.567-2.401 12.596 1.51 3.097 3.91 2.409 9.537-1.514 12.556-.07.069-.138.137-.207.137l-33.452 24.839c-3.373 2.539-8.19 1.921-10.806-1.372M346.014 210.99c3.098-6.244.62-13.791-5.506-17.016l-5.644-2.95-.138-.07c-3.304-1.646-7.365-.274-9.017 3.02-1.652 3.293-.275 7.342 3.029 8.988l.137.069 17.14 7.96z"/>
                <mask id="d" fill="#fff">
                    <use xlink:href="#c"/>
                </mask>
                <path fill="#231F20" d="M282.827 272.538h111.231v-5.695h-111.23z" mask="url(#d)"/>
                <path fill="#171112" d="M338.443 196.856c-.069-3.637-3.029-6.587-6.677-6.587l-41.918-.412h-.275c-4.337 0-7.916 3.43-7.916 7.753s3.442 7.891 7.778 7.891h.62l41.849-1.853c3.717-.068 6.608-3.156 6.539-6.792" mask="url(#d)"/>
                <path fill="#171112" d="M294.322 204.06a7.901 7.901 0 0 0 1.996-10.772l-23.264-34.514c-.07-.068-.07-.137-.139-.205-2.89-4.049-8.465-5.01-12.527-2.128-4.06 2.882-5.025 8.44-2.133 12.488l.137.206 25.054 33.21c2.547 3.43 7.365 4.185 10.876 1.715M231.204 118.498c3.028-11.184 14.523-17.771 25.674-14.752 11.22 3.019 17.827 14.477 14.799 25.593-3.03 11.184-14.524 17.771-25.674 14.752-11.15-2.95-17.828-14.409-14.799-25.593" mask="url(#d)"/>
                <path fill="#EC0000" d="M140.897 154.795c-8.948 0-13.284-5.352-14.798-12.9h-4.474l1.583-5.009h2.271c-.069-.754-.069-1.51-.069-2.332 0-1.03.07-1.99.138-2.814h-3.786l1.721-5.214h2.96c2.34-8.166 8.397-12.694 16.52-12.694 3.097 0 6.47.755 8.19 1.852l-2.065 5.764c-1.858-1.098-4.06-1.715-6.263-1.647-3.786 0-7.228 1.853-8.948 6.725h13.904l-1.652 5.214h-13.354c-.069 1.098-.137 2.127-.137 3.225 0 .686 0 1.373.068 1.99h12.115l-1.652 5.078h-9.705c1.1 4.185 3.579 6.93 7.778 6.93 2.615.137 5.162-1.03 6.814-3.088l4.199 4.185c-1.859 2.54-6.058 4.735-11.358 4.735M312.287 234.73h-33.245a1.525 1.525 0 0 1-1.515-1.508c0-.824.689-1.51 1.515-1.51h33.245c.826 0 1.514.617 1.514 1.44 0 .893-.688 1.579-1.514 1.579M302.306 223.204a3.436 3.436 0 0 1 3.442 3.43c0 1.895-1.54 3.431-3.442 3.431a3.436 3.436 0 0 1-3.441-3.43c0-1.895 1.54-3.431 3.441-3.431M290.537 222.93c1.9 0 3.441 1.535 3.441 3.43a3.437 3.437 0 0 1-3.441 3.43 3.436 3.436 0 0 1-3.442-3.43c0-1.895 1.54-3.43 3.442-3.43" mask="url(#d)"/>
                <path fill="#EC0000" d="M294.148 232.204l5.726-5.246 1.817 1.97-5.726 5.246zM290.911 228.486l1.976-1.812 2.423 2.628-1.976 1.81zM311.943 236.24s3.854 16.674 4.267 18.596c.413 1.92-1.72 6.929-6.057 6.929h-29.115c-3.373 0-6.126-2.676-6.126-6.038 0-.275 0-.548.069-.891.55-2.334 4.267-18.596 4.267-18.596h32.695z" mask="url(#d)"/>
                <path fill="#FFF" d="M282.965 254.15c.137-2.266 2.134-10.224 3.098-13.998h-3.786c-.964 3.774-2.96 11.802-3.098 13.997-.207 3.705 2.823 3.843 3.717 3.98 1.239.068 2.478.068 3.785 0 0 0-3.923-.275-3.716-3.98" mask="url(#d)"/>
                <path fill="#EC0000" d="M356.339 234.73h-33.245a1.525 1.525 0 0 1-1.515-1.508c0-.824.689-1.51 1.515-1.51h33.245c.826 0 1.514.617 1.514 1.44 0 .893-.688 1.579-1.514 1.579M346.358 223.204a3.436 3.436 0 0 1 3.442 3.43c0 1.895-1.54 3.431-3.442 3.431a3.436 3.436 0 0 1-3.441-3.43c0-1.895 1.54-3.431 3.441-3.431M334.589 222.93c1.9 0 3.441 1.535 3.441 3.43a3.437 3.437 0 0 1-3.441 3.43 3.436 3.436 0 0 1-3.442-3.43c0-1.895 1.54-3.43 3.442-3.43" mask="url(#d)"/>
                <path fill="#EC0000" d="M338.2 232.205l5.726-5.247 1.817 1.97-5.726 5.247zM334.961 228.487l1.976-1.81 2.423 2.626-1.976 1.811zM355.995 236.24s3.854 16.674 4.267 18.596c.413 1.92-1.72 6.929-6.057 6.929H325.09c-3.373 0-6.126-2.676-6.126-6.038 0-.275 0-.548.068-.891.551-2.334 4.268-18.596 4.268-18.596h32.695z" mask="url(#d)"/>
                <path fill="#FFF" d="M327.017 254.15c.137-2.266 2.134-10.224 3.098-13.998h-3.786c-.964 3.774-2.96 11.802-3.098 13.997-.207 3.705 2.823 3.843 3.717 3.98 1.239.068 2.478.068 3.785 0 0 0-3.923-.275-3.716-3.98" mask="url(#d)"/>
                <path fill="#EC0000" d="M399.978 234.73h-33.246a1.525 1.525 0 0 1-1.514-1.508c0-.824.689-1.51 1.514-1.51h33.246c.825 0 1.514.686 1.514 1.51 0 .823-.689 1.509-1.514 1.509M390.066 223.204a3.436 3.436 0 0 1 3.442 3.43c0 1.895-1.54 3.431-3.442 3.431a3.436 3.436 0 0 1-3.441-3.43c0-1.895 1.54-3.431 3.441-3.431M378.227 222.93a3.436 3.436 0 0 1 3.442 3.43c0 1.894-1.54 3.43-3.442 3.43a3.437 3.437 0 0 1-3.441-3.43 3.437 3.437 0 0 1 3.441-3.43" mask="url(#d)"/>
                <path fill="#EC0000" d="M381.858 232.249l5.726-5.247 1.817 1.97-5.726 5.247zM378.662 228.483l1.976-1.81 2.422 2.626-1.976 1.81zM399.703 236.24s3.854 16.674 4.267 18.596c.413 1.92-1.72 6.929-6.057 6.929h-29.116c-3.372 0-6.126-2.676-6.126-6.038 0-.275 0-.548.07-.891.55-2.334 4.267-18.596 4.267-18.596h32.695z" mask="url(#d)"/>
                <path fill="#FFF" d="M370.725 254.15c.137-2.266 2.134-10.224 3.097-13.998h-3.785c-.964 3.774-2.96 11.802-3.098 13.997-.207 3.705 2.822 3.843 3.716 3.98 1.24.068 2.479.068 3.786 0 0 0-3.923-.275-3.716-3.98" mask="url(#d)"/>
            </g>
        </g>
    </g>
</svg>
