<svg xmlns="http://www.w3.org/2000/svg" width="78" height="78" viewBox="0 0 78 78">
    <g fill="none" fill-rule="evenodd" stroke="#000" stroke-width="3" transform="translate(2 2)">
        <circle cx="37" cy="37" r="37" fill-rule="nonzero"/>
        <path fill="#2B9AD6" d="M32.983 29.262h7.611v30.826h-7.611V29.262zm8.88-9.641c0 1.353-.497 2.516-1.49 3.488-.994.973-2.189 1.459-3.584 1.459-1.354 0-2.538-.465-3.552-1.395-1.015-.93-1.523-2.072-1.523-3.426 0-1.353.497-2.516 1.49-3.488.995-.973 2.19-1.459 3.585-1.459a5.01 5.01 0 0 1 1.934.38 5.517 5.517 0 0 1 1.618 1.015c.465.423.835.93 1.11 1.523.274.592.412 1.226.412 1.903z"/>
    </g>
</svg>
