<?xml version="1.0" encoding="UTF-8"?>
<svg width="220px" height="220px" viewBox="0 0 220 220" version="1.1" xmlns="http://www.w3.org/2000/svg" xmlns:xlink="http://www.w3.org/1999/xlink">
    <!-- Generator: Sketch 52.5 (67469) - http://www.bohemiancoding.com/sketch -->
    <title>stap3</title>
    <desc>Created with Sketch.</desc>
    <g id="Symbols" stroke="none" stroke-width="1" fill="none" fill-rule="evenodd">
        <g id="Hoe-werkt-het-uitgeklapt" transform="translate(-710.000000, -60.000000)" fill-rule="nonzero">
            <g id="stap3">
                <g transform="translate(710.000000, 60.000000)">
                    <g id="stap3-haalbaarheid" fill="#FFFFFF">
                        <g id="Group-10">
                            <rect id="Rectangle-11-Copy-2" x="0" y="0" width="220" height="220" rx="110"></rect>
                        </g>
                    </g>
                    <g id="Group-3" transform="translate(37.000000, 55.000000)">
                        <g id="West-Begroot-icon">
                            <g id="Group-3-Copy-6">
                                <circle id="Oval" fill="#F3F3F3" cx="88.4459459" cy="33.4459459" r="6.68918919"></circle>
                                <circle id="Oval-Copy" fill="#F3F3F3" cx="110.743243" cy="33.4459459" r="6.68918919"></circle>
                                <g id="Group-7" transform="translate(53.513514, 26.756757)" stroke="#000000" stroke-width="3">
                                    <path d="M13.108983,28.2567568 L4.00679411,71.4921542 C3.88557056,72.067966 3.82446728,72.6548094 3.82446728,73.2432432 C3.82446728,77.9376636 7.63004691,81.7432432 12.3244673,81.7432432 L79.8376949,81.7432432 C80.4261288,81.7432432 81.0129721,81.68214 81.588784,81.5609164 C86.182508,80.5938166 89.1224679,76.0858782 88.1553681,71.4921542 L79.0531791,28.2567568 L13.108983,28.2567568 Z" id="Path-2"></path>
                                    <path d="M8.93243243,19.3378378 L8.93243243,25.2162162 C8.93243243,27.7014976 10.9471511,29.7162162 13.4324324,29.7162162 L80.2162162,29.7162162 C82.7014976,29.7162162 84.7162162,27.7014976 84.7162162,25.2162162 L84.7162162,19.3378378 L8.93243243,19.3378378 Z" id="Rectangle" fill="#F3F3F3"></path>
                                    <path d="M53.7713161,12.4161317 C51.8348479,11.2442169 50.5405405,9.11785388 50.5405405,6.68918919 C50.5405405,2.99485201 53.5353926,0 57.2297297,0 C60.9240669,0 63.9189189,2.99485201 63.9189189,6.68918919 C63.9189189,10.3835264 60.9240669,13.3783784 57.2297297,13.3783784 C55.9640572,13.3783784 54.7804857,13.0268625 53.7713161,12.4161317 L46.9864865,19.7432432 L53.7713161,12.4161317 Z" id="Combined-Shape"></path>
                                    <path d="M37.8665045,12.7022342 C36.980637,13.1353051 35.9849211,13.3783784 34.9324324,13.3783784 C31.2380953,13.3783784 28.2432432,10.3835264 28.2432432,6.68918919 C28.2432432,2.99485201 31.2380953,0 34.9324324,0 C38.6267696,0 41.6216216,2.99485201 41.6216216,6.68918919 C41.6216216,9.3310377 40.0901177,11.6151843 37.8665045,12.7022342 L43.9864865,19.7432432 L37.8665045,12.7022342 Z" id="Combined-Shape"></path>
                                </g>
                                <g id="Group-2" stroke="#000000" stroke-linecap="round" stroke-width="3">
                                    <path d="M25.1177669,1.79432004 C11.4171668,-1.25025777 4.56686671,3.58723808 4.56686671,16.3068076 C4.56686671,29.0263771 11.4171668,34.0837591 25.1177669,31.4789537" id="Path"></path>
                                    <path d="M6.75015599e-14,12.4145399 L20.5509002,12.4145399" id="Path-3"></path>
                                    <path d="M2.22044605e-14,20.0617869 L18.2674668,20.0617869" id="Path-4"></path>
                                </g>
                                <g id="Group-2-Copy" transform="translate(25.270270, 47.567568)" stroke="#000000" stroke-linecap="round" stroke-width="3">
                                    <path d="M20.8108108,0.713677338 C9.90990991,-1.7498311 4.45945946,2.16441009 4.45945946,12.4564009 C4.45945946,22.7483917 9.90990991,26.840553 20.8108108,24.7328846" id="Path"></path>
                                    <path d="M0,9.66216216 L16.3513514,9.66216216" id="Path-3"></path>
                                    <path d="M0,15.6081081 L14.8648649,15.6081081" id="Path-4"></path>
                                </g>
                            </g>
                        </g>
                    </g>
                </g>
            </g>
        </g>
    </g>
</svg>
